<?xml version="1.0" standalone="no"?>
<!DOCTYPE svg PUBLIC "-//W3C//DTD SVG 20010904//EN"
 "http://www.w3.org/TR/2001/REC-SVG-20010904/DTD/svg10.dtd">
<svg version="1.0" xmlns="http://www.w3.org/2000/svg"
 width="5000.000000pt" height="5000.000000pt" viewBox="0 0 5000.000000 5000.000000"
 preserveAspectRatio="xMidYMid meet">

<g transform="translate(0.000000,5000.000000) scale(0.100000,-0.100000)"
fill="#000000" stroke="none">
<path d="M14830 45744 c-46 -20 -87 -60 -112 -109 -19 -35 -20 -51 -15 -150 4
-60 16 -200 27 -310 195 -1891 610 -3544 1250 -4980 74 -165 283 -591 370
-756 l62 -115 -89 -145 c-397 -643 -749 -1349 -1069 -2152 -124 -310 -133
-340 -289 -987 -343 -1421 -596 -2664 -729 -3575 -62 -422 -112 -922 -104
-1044 l3 -55 402 -152 c311 -117 451 -164 615 -207 1196 -314 2509 -591 3839
-807 239 -39 463 -77 499 -85 154 -34 1640 -180 2595 -255 1498 -117 2604
-168 3405 -157 1786 25 5255 331 7280 641 348 54 1070 203 1670 346 494 117
564 139 1085 339 269 104 586 224 702 267 l213 79 0 61 c0 82 -16 279 -41 504
-101 912 -378 2288 -805 4005 -242 970 -266 1054 -364 1290 -272 652 -587
1285 -904 1813 l-98 162 68 123 c853 1542 1414 3444 1658 5622 52 466 62 604
47 654 -26 88 -112 151 -206 151 -95 0 -183 -65 -205 -152 -6 -24 -45 -164
-87 -313 -477 -1698 -1307 -3250 -2396 -4483 l-99 -111 -131 119 c-1250 1130
-2998 2006 -5002 2509 -227 57 -476 113 -481 109 -1 -2 29 -42 68 -88 39 -47
125 -157 190 -244 574 -769 1045 -1759 1357 -2851 138 -484 295 -1209 392
-1813 28 -174 31 -205 18 -212 -8 -5 -106 -44 -218 -86 -147 -54 -206 -72
-211 -64 -4 7 -11 44 -14 84 -32 324 -143 1044 -222 1430 -237 1158 -776 2652
-1337 3701 -84 158 -85 160 -125 168 -37 7 -119 -23 -1158 -429 -616 -240
-1126 -436 -1134 -436 -8 0 -424 168 -924 372 -683 278 -912 367 -918 358 -4
-7 -55 -105 -112 -218 -533 -1050 -1015 -2411 -1240 -3506 -77 -373 -161 -914
-221 -1416 -4 -32 -10 -58 -14 -58 -4 0 -84 30 -177 66 -93 36 -188 73 -211
82 -53 20 -52 10 -13 245 245 1452 565 2505 1055 3472 239 471 522 920 798
1265 l84 105 -29 12 c-26 11 -60 5 -306 -57 -1355 -339 -2603 -844 -3667
-1482 -509 -306 -1007 -668 -1373 -996 l-84 -75 -56 63 c-591 661 -1154 1506
-1585 2377 -355 717 -654 1512 -847 2248 -45 170 -64 217 -102 252 -54 51
-157 68 -228 37z m20725 -1441 c-93 -634 -233 -1324 -385 -1890 -63 -236 -196
-692 -204 -701 -2 -2 -7 34 -11 80 -22 282 -96 678 -126 678 -5 0 -14 -12 -20
-27 -8 -21 -6 -60 10 -158 36 -227 44 -355 38 -614 -3 -135 -10 -273 -16 -307
-15 -82 -267 -748 -311 -822 -7 -12 -8 19 -3 103 11 161 10 688 -1 798 -5 62
-12 90 -22 94 -24 9 -29 -5 -26 -80 4 -106 -16 -490 -33 -641 -31 -268 -101
-615 -159 -791 -36 -108 -400 -794 -414 -780 -2 2 3 35 12 74 43 188 100 608
125 926 28 343 40 729 22 739 -20 13 -29 -25 -35 -149 -29 -558 -116 -1077
-257 -1530 -110 -352 -289 -730 -445 -942 -54 -73 -98 -132 -99 -130 -1 1 19
88 45 193 119 476 168 934 156 1474 -7 370 -17 443 -52 396 -11 -16 -14 -68
-14 -255 0 -527 -77 -999 -245 -1506 -126 -379 -323 -825 -408 -922 -87 -101
-320 -343 -328 -343 -5 0 1 21 11 46 38 87 120 325 165 474 94 315 155 620
191 945 21 196 31 643 14 674 -24 46 -39 5 -50 -144 -54 -725 -240 -1383 -546
-1937 -93 -167 -327 -525 -393 -600 -33 -37 -141 -128 -238 -201 -7 -5 8 35
33 89 142 307 282 720 363 1074 86 379 141 942 96 980 -11 9 -19 10 -26 3 -5
-5 -21 -89 -34 -186 -94 -692 -274 -1247 -575 -1773 -82 -144 -276 -436 -337
-510 -46 -55 -224 -184 -210 -152 208 474 314 893 357 1403 13 157 13 636 0
670 -7 17 -16 25 -28 23 -15 -3 -18 -21 -24 -138 -19 -364 -49 -583 -118 -850
-124 -475 -335 -938 -598 -1310 -51 -71 -75 -95 -119 -120 -82 -46 -439 -230
-446 -230 -4 0 18 50 49 111 205 410 333 891 409 1534 20 175 19 217 -4 246
-15 19 -22 21 -32 12 -6 -6 -24 -87 -40 -180 -129 -745 -370 -1324 -761 -1828
-67 -87 -78 -96 -143 -124 -97 -42 -299 -120 -303 -116 -2 2 5 20 16 42 41 79
133 325 171 455 39 134 79 318 103 478 18 116 17 570 0 670 -21 117 -31 150
-47 150 -22 0 -25 -26 -29 -290 -6 -341 -39 -542 -131 -810 -92 -266 -295
-598 -496 -811 -39 -41 -55 -50 -144 -77 -173 -53 -312 -92 -327 -92 -12 0
-10 21 9 123 12 67 27 181 33 252 7 72 23 184 36 250 57 286 77 540 63 797
-15 290 -44 404 -80 325 -7 -17 -8 -72 -1 -183 14 -239 -12 -600 -32 -428 -3
33 -18 114 -31 180 -80 387 -224 735 -448 1082 -33 51 -58 94 -56 96 2 2 60
16 129 31 2692 586 4867 2032 6395 4250 544 791 1063 1807 1382 2707 26 75 50
135 51 133 2 -2 -8 -84 -23 -182z m-20370 42 c230 -638 583 -1385 936 -1986
1264 -2149 3092 -3694 5354 -4523 331 -122 786 -264 1063 -333 40 -10 73 -22
74 -26 0 -5 -31 -52 -70 -105 -379 -525 -584 -1170 -581 -1822 0 -85 4 -192 7
-238 l7 -83 -27 33 c-72 89 -206 326 -270 478 -120 287 -168 544 -174 934 -4
249 -6 276 -29 276 -17 0 -20 -10 -42 -130 -25 -136 -25 -557 0 -720 49 -314
142 -629 263 -887 23 -51 38 -93 32 -93 -15 0 -300 110 -324 125 -12 8 -55 56
-96 107 -420 527 -659 1089 -797 1878 -16 89 -34 167 -41 173 -9 9 -16 6 -32
-13 -19 -23 -20 -33 -14 -120 4 -52 18 -177 31 -277 78 -574 201 -1007 400
-1402 59 -119 64 -132 43 -126 -13 4 -117 55 -232 113 -229 117 -223 112 -342
279 -256 358 -475 842 -595 1310 -69 270 -96 465 -117 848 -6 119 -9 130 -26
130 -34 0 -38 -54 -33 -385 6 -344 13 -425 57 -695 59 -354 188 -774 316
-1027 29 -58 26 -58 -59 -4 -125 80 -428 528 -626 926 -216 435 -353 893 -436
1455 -14 94 -25 184 -25 201 0 16 -6 39 -14 49 -12 17 -16 18 -31 5 -16 -14
-17 -30 -12 -180 22 -584 211 -1325 488 -1909 33 -68 58 -125 57 -127 -2 -1
-43 29 -91 68 -69 54 -109 97 -179 192 -203 273 -403 597 -510 824 -247 526
-392 1097 -438 1727 -7 98 -14 143 -24 154 -13 13 -17 11 -27 -15 -15 -39 -5
-468 16 -664 50 -468 178 -983 354 -1420 27 -68 48 -126 46 -128 -6 -6 -290
288 -324 334 -16 21 -67 116 -114 209 -256 512 -437 1053 -517 1545 -40 250
-52 394 -57 697 -4 233 -9 307 -19 320 -12 15 -15 16 -23 4 -31 -48 -37 -783
-8 -1066 38 -374 110 -754 196 -1032 11 -35 18 -63 16 -63 -2 0 -25 30 -53 68
-89 121 -261 443 -370 693 -221 509 -360 1153 -403 1865 -7 109 -16 205 -22
211 -26 34 -30 -5 -24 -216 16 -525 64 -984 148 -1404 21 -109 39 -201 39
-205 0 -18 -129 204 -259 446 -95 178 -134 273 -190 472 -111 396 -168 806
-174 1257 -2 111 -6 205 -10 209 -3 3 -13 4 -21 1 -22 -9 -31 -159 -31 -507 0
-264 13 -521 31 -595 17 -74 -104 212 -232 543 -100 262 -124 407 -124 767 0
202 10 329 38 505 20 126 21 195 4 212 -18 18 -26 2 -51 -106 -47 -205 -76
-405 -87 -606 l-8 -125 -38 120 c-164 507 -349 1260 -463 1880 -46 250 -135
803 -135 839 0 30 5 19 55 -119z m10075 -6105 c468 -36 903 -183 1285 -435
651 -429 1075 -1096 1191 -1867 25 -166 29 -496 10 -668 -73 -628 -342 -1182
-787 -1621 -428 -422 -967 -682 -1574 -760 -128 -17 -491 -17 -620 0 -143 18
-332 57 -463 97 -1027 311 -1773 1201 -1897 2264 -19 162 -19 460 0 624 47
405 196 814 419 1151 139 210 266 359 436 513 214 194 410 326 662 446 422
202 884 290 1338 256z m-4345 -3127 c43 -20 45 -33 6 -33 -16 0 -36 -3 -45 -6
-13 -5 -16 1 -16 25 0 36 6 37 55 14z m-5083 -2602 c122 -47 221 -147 264
-266 25 -72 24 -203 -4 -275 -43 -110 -142 -209 -252 -252 -84 -32 -228 -37
-319 -9 -130 39 -247 154 -287 281 -24 77 -22 189 5 261 48 127 145 220 279
266 88 31 226 28 314 -6z m19417 18 c186 -43 328 -205 339 -388 5 -87 -13
-167 -54 -237 -37 -63 -126 -141 -201 -177 -65 -31 -73 -32 -193 -32 -120 0
-128 1 -193 32 -170 81 -265 236 -255 414 11 180 153 345 335 388 52 12 169
13 222 0z m-16290 -480 c73 -17 152 -61 211 -119 196 -192 161 -500 -72 -650
-82 -54 -164 -73 -281 -68 -85 3 -103 8 -171 42 -95 47 -164 114 -208 203 -31
64 -33 73 -33 178 0 104 2 114 32 176 76 153 228 248 403 248 41 0 95 -4 119
-10z m13126 -4 c124 -32 231 -123 289 -245 28 -59 31 -74 31 -165 0 -91 -3
-106 -31 -166 -83 -175 -241 -266 -447 -257 -85 3 -103 8 -169 41 -93 46 -168
119 -211 206 -30 62 -32 72 -32 176 0 101 2 115 29 170 35 70 112 156 174 192
103 61 246 79 367 48z m-9879 -259 c74 -23 168 -90 215 -152 197 -260 43 -620
-289 -675 -198 -33 -402 71 -484 248 -77 164 -34 368 103 487 51 44 146 92
210 106 59 12 182 5 245 -14z m6653 9 c210 -50 355 -241 338 -445 -25 -304
-368 -488 -652 -350 -157 76 -245 213 -245 380 0 283 270 483 559 415z m-3428
-184 c329 -125 390 -543 108 -741 -234 -164 -557 -85 -680 165 -32 66 -34 75
-34 175 0 102 1 109 38 182 57 117 155 195 290 233 72 21 205 14 278 -14z"/>
<path d="M24783 37975 c-656 -83 -1258 -430 -1648 -949 -263 -351 -413 -719
-477 -1171 -16 -117 -16 -474 1 -595 74 -540 296 -1004 664 -1386 368 -383
853 -636 1382 -720 154 -25 481 -30 649 -10 610 71 1164 365 1564 831 703 819
783 2004 197 2905 -187 288 -408 510 -694 702 -293 196 -631 327 -986 384
-142 22 -508 27 -652 9z m652 -184 c329 -58 606 -166 873 -340 680 -446 1072
-1221 1022 -2024 -26 -407 -155 -791 -378 -1121 -96 -144 -175 -236 -313 -372
-678 -660 -1701 -823 -2554 -405 -1014 497 -1511 1664 -1160 2726 120 365 297
647 577 921 361 353 800 565 1305 629 156 20 472 13 628 -14z"/>
<path d="M24862 37690 c-248 -65 -453 -275 -518 -530 -40 -155 -2 -410 71
-483 12 -13 36 -15 142 -10 100 4 142 2 193 -11 198 -50 359 -190 411 -357 33
-107 37 -104 -94 -105 -95 0 -124 -5 -192 -28 -83 -28 -163 -74 -227 -128
l-37 -31 -63 58 c-133 120 -296 210 -466 257 -107 30 -344 32 -446 4 -251 -68
-473 -237 -579 -443 -68 -132 -88 -208 -94 -348 -7 -153 16 -256 84 -389 83
-159 250 -303 413 -355 119 -37 283 -32 385 13 79 35 86 62 70 269 -9 120 9
199 65 285 46 72 89 114 164 163 66 43 197 89 254 89 l37 0 2 -74 c4 -138 56
-277 146 -386 l44 -54 -64 -81 c-220 -278 -291 -665 -182 -999 98 -299 326
-530 584 -591 90 -22 236 -19 325 6 252 70 456 281 516 534 34 146 0 388 -65
465 l-26 31 -88 -9 c-175 -16 -322 20 -452 112 -105 75 -189 205 -201 313 l-6
48 83 -3 c157 -6 323 50 429 144 26 24 52 44 57 44 5 0 25 -16 44 -36 103
-109 315 -231 474 -274 114 -31 304 -38 416 -16 528 107 848 637 668 1107 -75
196 -239 358 -434 431 -51 18 -81 22 -195 22 -119 1 -142 -2 -194 -23 -52 -21
-60 -28 -79 -70 -19 -42 -19 -52 -9 -127 21 -140 10 -228 -40 -334 -35 -73
-150 -181 -238 -223 -58 -28 -196 -67 -235 -67 -3 0 -5 35 -5 78 0 140 -57
292 -148 393 l-43 48 48 60 c108 133 191 305 230 473 12 52 17 117 17 228 -1
135 -4 168 -27 255 -87 327 -320 586 -593 655 -100 26 -233 26 -332 0z m260
-261 c211 -43 430 -253 488 -467 49 -185 18 -419 -84 -623 -52 -105 -126 -219
-142 -219 -7 0 -13 34 -17 93 -22 329 -224 613 -509 714 -61 22 -95 27 -207
31 l-134 4 5 68 c6 85 51 172 128 251 128 130 299 184 472 148z m-1027 -1379
c107 -26 176 -50 268 -96 l78 -38 -98 -17 c-113 -20 -164 -37 -240 -80 -226
-130 -361 -365 -381 -662 l-7 -102 -63 -3 c-140 -7 -258 42 -368 152 -91 91
-125 160 -132 262 -6 101 17 185 78 277 112 171 306 293 520 326 88 13 248 5
345 -19z m2530 5 c142 -37 274 -143 336 -270 31 -64 34 -77 34 -160 0 -106
-16 -157 -82 -257 -150 -228 -438 -354 -736 -321 -130 15 -256 52 -377 110
l-95 46 80 12 c370 56 614 338 641 744 4 53 12 99 18 103 19 13 119 9 181 -7z
m-1844 -1151 c21 -293 187 -559 420 -673 116 -57 192 -74 323 -74 l109 0 -6
-64 c-11 -143 -121 -284 -282 -364 l-88 -44 -121 0 c-107 1 -129 4 -188 27
-193 77 -339 233 -405 433 -22 68 -26 99 -26 200 -1 158 35 302 115 460 40 77
121 196 132 192 6 -2 14 -41 17 -93z"/>
<path d="M24346 44592 c-21 -136 -47 -274 -57 -307 -33 -107 -102 -210 -223
-331 -138 -138 -295 -244 -528 -358 -92 -44 -167 -83 -168 -86 0 -3 368 -155
818 -338 l817 -332 860 336 c473 185 869 339 880 344 16 6 -2 18 -95 65 -393
197 -767 447 -886 593 -113 138 -184 360 -184 573 l0 89 -597 0 -598 0 -39
-248z"/>
<path d="M11130 33179 c-565 -35 -1085 -172 -1564 -411 -364 -181 -675 -407
-982 -713 -198 -197 -300 -317 -521 -615 -756 -1017 -1578 -2398 -2449 -4115
-258 -508 -647 -1313 -755 -1562 l-18 -43 104 -155 c250 -373 562 -757 873
-1077 105 -107 176 -170 266 -234 296 -210 590 -382 1051 -614 592 -298 1219
-568 2035 -875 477 -179 1269 -459 1278 -450 3 2 20 64 39 137 60 237 113 387
219 625 4 8 -13 17 -48 27 -976 266 -1903 622 -3118 1194 -479 225 -1279 627
-1360 683 -23 15 -23 15 1029 1667 578 909 1059 1665 1068 1680 29 47 -32 -18
-1207 -1293 -628 -682 -1161 -1258 -1183 -1280 -36 -35 -38 -36 -22 -10 10 17
847 1273 1860 2793 l1842 2763 50 -68 c207 -282 592 -605 1098 -921 156 -97
441 -264 517 -303 l37 -19 48 68 c86 123 193 261 277 361 l84 98 -115 82
c-186 134 -309 237 -462 386 -324 316 -500 584 -636 969 -30 87 -54 160 -53
161 2 1 309 -125 683 -281 373 -156 681 -281 684 -279 2 3 145 346 316 762
l312 758 -26 8 c-14 4 -89 18 -166 32 -369 65 -733 86 -1085 64z"/>
<path d="M38225 33129 c-155 -14 -329 -37 -458 -61 -98 -18 -117 -24 -112 -37
32 -84 579 -1408 584 -1414 4 -4 324 125 712 287 387 161 705 292 707 291 4
-3 -121 -357 -158 -444 -94 -229 -273 -489 -495 -720 -75 -78 -286 -272 -324
-298 -4 -2 6 -13 163 -189 49 -54 129 -150 179 -211 49 -62 95 -113 101 -113
17 0 333 203 491 315 76 54 195 143 264 199 154 122 406 372 488 483 l61 81
1857 -2785 c1021 -1532 1855 -2786 1853 -2788 -2 -2 -2054 2216 -2402 2597
-22 24 -35 36 -31 28 5 -8 485 -763 1067 -1678 582 -915 1060 -1668 1061
-1673 3 -13 -258 -151 -733 -388 -1164 -580 -2205 -1020 -3107 -1314 -222 -73
-651 -197 -679 -197 -20 0 -18 -13 21 -111 51 -129 98 -292 139 -479 20 -91
39 -175 41 -187 5 -21 9 -21 193 42 1722 583 3204 1231 3982 1739 106 70 154
111 311 267 212 211 344 354 530 577 265 317 576 755 564 793 -26 82 -479
1022 -749 1554 -907 1787 -1760 3212 -2529 4225 -154 203 -241 304 -397 463
-163 168 -284 274 -458 404 -531 398 -1153 640 -1872 728 -159 20 -708 29
-865 14z"/>
<path d="M12998 31281 c-819 -596 -1470 -1341 -1774 -2031 -159 -359 -232
-669 -241 -1025 -8 -316 31 -572 113 -738 299 -605 1482 -1176 3452 -1666
2538 -632 6328 -1102 10017 -1243 1881 -71 5065 146 7805 533 2964 418 5154
991 6286 1645 301 173 554 380 695 567 154 204 213 436 213 837 1 117 -5 246
-13 300 -101 727 -494 1430 -1191 2128 -184 185 -379 358 -586 522 -176 140
-358 270 -377 270 -39 0 -1280 -461 -2062 -765 -360 -141 -423 -162 -630 -220
-1072 -298 -3508 -629 -6265 -850 -1596 -127 -2825 -180 -3650 -156 -2597 76
-6412 464 -8255 841 -568 117 -818 188 -1264 362 -822 321 -2082 788 -2124
788 -8 0 -75 -44 -149 -99z m1193 -1401 c-237 -480 -351 -893 -338 -1225 9
-237 53 -348 202 -504 105 -110 241 -221 398 -325 335 -221 879 -492 1439
-717 114 -45 206 -84 205 -86 -2 -1 -81 18 -175 42 -884 229 -1620 531 -2015
829 -150 113 -267 246 -322 369 -64 140 -73 408 -21 615 67 269 216 556 441
857 91 122 265 329 270 323 2 -2 -36 -82 -84 -178z m22400 -77 c210 -268 372
-553 455 -801 91 -270 96 -564 14 -741 -161 -345 -715 -682 -1620 -984 -287
-97 -876 -264 -887 -253 -3 2 29 16 69 32 255 96 670 280 953 421 635 318
1026 607 1149 851 53 105 69 190 69 372 1 179 -12 273 -63 465 -61 231 -155
473 -286 739 l-74 151 70 -75 c39 -41 107 -121 151 -177z m-23025 -55 c-65
-123 -158 -331 -215 -483 -183 -488 -215 -897 -90 -1150 162 -329 898 -784
1968 -1216 106 -43 195 -80 198 -83 7 -6 -336 82 -497 129 -208 60 -616 199
-802 273 -401 160 -720 334 -940 511 -91 73 -155 142 -215 232 -143 215 -146
554 -7 912 82 213 262 516 438 736 79 98 204 241 212 241 2 0 -20 -46 -50
-102z m23650 -108 c300 -369 493 -745 549 -1069 31 -175 13 -400 -40 -518
-178 -393 -898 -786 -2055 -1122 -143 -41 -453 -121 -457 -117 -2 1 52 24 120
51 446 175 932 404 1281 602 125 71 382 243 471 315 105 85 241 230 284 302
82 137 112 377 77 611 -44 301 -167 661 -344 1008 -37 73 -68 137 -70 142 -6
17 93 -94 184 -205z m-24356 -190 c-341 -693 -428 -1262 -243 -1580 52 -89
212 -248 365 -361 331 -246 966 -574 1595 -824 95 -38 171 -70 169 -73 -12
-12 -553 141 -846 239 -927 309 -1477 642 -1640 990 -61 132 -76 366 -35 564
58 281 244 645 494 965 81 104 223 269 229 265 1 -1 -38 -85 -88 -185z m25037
-40 c181 -226 364 -531 447 -747 81 -209 117 -430 97 -597 -26 -219 -106 -364
-290 -523 -370 -318 -1148 -651 -2102 -898 -94 -24 -169 -41 -166 -38 4 3 93
40 199 83 831 333 1502 707 1801 1003 162 161 218 278 237 492 29 325 -103
811 -357 1315 l-72 145 61 -65 c33 -36 98 -112 145 -170z m-8538 -560 c-23
-14 -386 -134 -529 -175 -1122 -325 -2382 -478 -3665 -445 -947 25 -1786 118
-2653 295 -342 70 -861 199 -848 212 2 2 100 -7 217 -21 713 -84 1505 -145
2444 -187 379 -17 1552 -23 1900 -10 861 32 1649 104 2435 221 264 40 661 109
669 116 2 2 14 4 25 4 18 -1 18 -2 5 -10z m599 -625 c-12 -12 -299 -111 -495
-170 -1012 -307 -2091 -487 -3268 -545 -281 -14 -1067 -14 -1385 0 -1172 51
-2306 207 -3285 451 -217 55 -447 118 -455 127 -3 2 18 2 45 -2 28 -4 185 -22
350 -41 1758 -200 3862 -274 5370 -190 1022 58 2114 183 2910 335 227 43 220
42 213 35z m502 -666 c-110 -43 -469 -160 -670 -217 -1039 -298 -2108 -474
-3365 -554 -273 -18 -1571 -18 -1870 0 -1233 72 -2205 201 -3225 428 -342 76
-848 209 -837 220 2 2 73 -5 158 -16 695 -90 1859 -188 2804 -235 2118 -105
3768 -56 5540 166 464 58 1130 161 1410 218 128 26 141 24 55 -10z m605 -625
c-94 -39 -511 -177 -720 -238 -1269 -368 -2635 -584 -4085 -646 -304 -13
-1181 -13 -1515 0 -1450 56 -2852 239 -4085 532 -366 87 -759 193 -749 202 2
2 31 0 64 -5 249 -34 835 -97 1290 -138 2036 -186 4187 -243 5845 -156 1251
66 2518 207 3635 406 121 21 249 45 285 53 95 20 102 18 35 -10z m630 -613
c-23 -20 -523 -189 -830 -280 -1233 -363 -2663 -607 -4080 -696 -746 -46
-1685 -48 -2530 -5 -1464 76 -2968 290 -4270 610 -256 63 -635 168 -647 178
-4 4 109 -7 250 -25 1227 -152 2713 -261 4392 -324 445 -16 2063 -23 2490 -10
1364 42 2668 154 3958 342 446 65 1207 194 1257 213 17 7 19 6 10 -3z"/>
<path d="M17246 30441 c-16 -18 -15 -19 21 -25 21 -4 52 -9 68 -12 30 -6 30
-6 -10 25 -47 36 -56 37 -79 12z"/>
<path d="M9317 29648 c-196 -335 -350 -608 -343 -605 8 3 167 93 355 201 187
107 341 193 341 190 0 -2 -511 -1025 -1135 -2274 l-1135 -2269 63 -45 c467
-333 1641 -797 3226 -1276 128 -38 237 -70 241 -70 5 0 39 46 75 103 461 704
1134 1368 1907 1881 161 106 482 296 501 296 5 0 7 4 5 10 -1 5 -122 50 -268
99 -1245 418 -2005 879 -2309 1399 -79 136 -123 278 -158 517 -27 183 -24 562
5 752 43 276 127 558 246 828 l62 140 -105 49 c-363 170 -863 447 -1132 627
l-86 58 -356 -611z"/>
<path d="M40240 30204 c-103 -71 -408 -253 -615 -365 l-190 -104 52 -95 c286
-516 429 -1116 393 -1643 -20 -293 -61 -481 -139 -642 -123 -252 -363 -504
-693 -726 -501 -338 -1220 -646 -2143 -919 -115 -35 -214 -66 -219 -71 -24
-22 16 -57 138 -122 219 -117 413 -240 680 -431 640 -458 1144 -950 1484
-1449 45 -66 82 -123 84 -128 3 -10 349 93 858 256 1041 333 1886 666 2355
928 109 61 305 189 305 199 0 5 -511 1030 -1135 2278 -644 1288 -1128 2267
-1118 2261 10 -5 168 -95 352 -200 184 -105 335 -190 337 -188 7 7 -696 1202
-708 1204 -7 1 -42 -18 -78 -43z"/>
<path d="M13776 25645 c-17 -44 -21 -47 -154 -115 -985 -500 -1964 -1418
-2492 -2335 -80 -139 -187 -361 -233 -486 -216 -580 -381 -1787 -466 -3424
-44 -828 -60 -1383 -68 -2294 l-6 -754 79 62 c555 437 1294 957 1929 1358 731
462 1514 894 1878 1037 260 102 773 265 787 249 13 -12 78 -287 71 -295 -3 -4
-62 -23 -131 -43 -576 -167 -868 -298 -1630 -733 -1084 -618 -2325 -1480
-3150 -2186 -74 -63 -138 -116 -142 -116 -12 0 -10 1465 3 2019 5 266 8 485 6
487 -11 12 -435 -299 -642 -472 -165 -138 -466 -438 -575 -574 -109 -136 -211
-292 -266 -405 -297 -612 -488 -2073 -564 -4313 -11 -342 -33 -1650 -28 -1704
l3 -37 95 90 c1315 1243 2829 2204 4185 2654 483 161 1315 332 2405 494 387
58 1021 143 1026 139 10 -11 64 -301 57 -308 -4 -4 -53 -12 -108 -19 -1383
-169 -2674 -408 -3270 -605 -825 -274 -1757 -768 -2634 -1399 -687 -493 -1409
-1121 -1876 -1631 -99 -108 -183 -196 -187 -196 -12 0 -9 1673 3 2130 5 221 9
404 7 405 -2 2 -75 -44 -163 -103 -589 -393 -1026 -806 -1238 -1167 -397 -678
-644 -2688 -674 -5484 -5 -484 -4 -613 6 -607 7 5 81 65 165 136 919 764 1987
1460 3011 1961 819 400 1533 657 2270 814 1256 269 3561 551 6490 795 264 22
503 42 531 45 l52 6 123 -143 c889 -1033 2187 -2298 3126 -3045 198 -158 259
-199 358 -239 371 -149 1437 -301 2755 -391 307 -21 902 -23 1220 -5 1292 75
2387 238 2755 411 44 21 134 78 200 128 176 133 643 525 855 719 25 22 121
110 215 195 502 457 1057 1004 1575 1554 118 125 342 375 499 555 79 91 160
183 180 206 l37 40 334 -28 c3112 -261 5461 -554 6690 -834 1102 -251 2392
-834 3637 -1641 527 -342 1125 -784 1578 -1166 49 -42 90 -75 92 -73 3 3 -14
607 -27 976 -98 2669 -340 4546 -667 5170 -125 240 -385 519 -719 772 -163
123 -538 368 -548 357 -2 -2 0 -92 5 -199 25 -594 53 -1850 47 -2119 l-3 -144
-176 189 c-485 520 -1022 997 -1664 1479 -1113 834 -2229 1416 -3215 1674
-595 156 -1488 313 -2674 471 -165 22 -301 42 -303 44 -2 1 11 71 29 154 29
141 33 152 54 152 50 0 838 -111 1253 -176 742 -117 1334 -234 1766 -349 1101
-294 2431 -1018 3620 -1970 305 -244 665 -558 883 -769 l102 -99 0 154 c0 181
-14 665 -35 1219 -96 2495 -305 4199 -588 4779 -191 393 -632 813 -1272 1213
-158 98 -336 201 -341 196 -2 -2 1 -114 6 -249 23 -587 58 -2314 47 -2325 -2
-2 -73 55 -158 128 -900 766 -2221 1671 -3364 2305 -526 292 -730 385 -1130
519 -142 47 -221 79 -223 88 -4 17 57 277 67 288 15 17 555 -171 777 -270 197
-88 715 -369 1124 -610 772 -454 1690 -1077 2383 -1616 104 -80 191 -146 194
-146 11 0 -10 944 -37 1670 -90 2408 -274 4173 -506 4853 -252 737 -958 1526
-1969 2202 -219 147 -390 244 -640 366 -104 51 -193 98 -197 103 -4 6 -8 25
-8 42 0 17 -3 33 -6 37 -3 3 -27 -1 -52 -8 -272 -81 -1380 -320 -1997 -431
-115 -21 -212 -39 -215 -42 -3 -2 84 -90 193 -195 l197 -192 15 -91 c132 -799
53 -1535 -249 -2297 -45 -114 -52 -139 -42 -158 6 -12 16 -22 21 -22 22 -1
255 512 255 562 0 6 4 11 8 11 9 0 61 -211 92 -375 43 -232 42 -336 -6 -502
-77 -266 -225 -512 -443 -737 -394 -404 -915 -649 -1726 -810 -345 -69 -1127
-182 -1555 -226 -557 -57 -786 -109 -1020 -231 -184 -96 -303 -218 -395 -403
-90 -183 -125 -350 -125 -596 0 -203 21 -372 75 -614 25 -111 39 -136 64 -112
11 11 11 43 2 184 -33 510 6 794 141 1019 35 59 158 192 195 212 20 10 20 6
-12 -63 -61 -134 -101 -292 -126 -491 -23 -186 -9 -719 20 -748 11 -11 38 1
45 20 4 8 11 126 16 262 17 408 53 581 166 785 82 151 309 435 329 414 2 -2
-22 -48 -51 -103 -146 -266 -194 -482 -216 -962 -12 -272 -10 -293 28 -293 17
0 20 13 40 170 53 422 140 702 282 911 58 86 117 154 107 124 -82 -233 -128
-504 -141 -845 -6 -148 -5 -167 10 -179 31 -26 43 7 76 194 80 463 182 703
394 930 l66 70 -40 -75 c-106 -203 -150 -416 -130 -632 14 -149 19 -168 41
-168 11 0 19 3 20 8 0 4 2 63 3 132 4 148 26 244 86 369 48 100 109 188 178
255 l51 49 68 -25 68 -26 8 -53 c15 -98 11 -465 -6 -584 -48 -340 -168 -696
-335 -994 -39 -70 -128 -190 -287 -388 -535 -668 -650 -796 -968 -1080 -253
-227 -489 -460 -629 -622 -350 -405 -541 -805 -598 -1256 -6 -49 -14 -93 -18
-97 -12 -11 -431 -237 -562 -303 -154 -77 -321 -151 -460 -203 -564 -214
-1291 -305 -2305 -289 -976 16 -1519 105 -2110 347 -146 60 -491 233 -726 363
l-156 87 -7 74 c-32 353 -190 743 -438 1078 -168 227 -462 530 -828 853 -933
823 -1422 1574 -1546 2374 -31 199 -17 475 33 654 12 45 22 61 44 72 15 8 33
15 39 15 22 0 145 -138 188 -210 92 -153 132 -300 132 -480 0 -90 3 -112 15
-117 9 -3 18 -3 21 0 13 12 24 88 30 197 13 227 -36 428 -156 640 l-31 55 66
-70 c135 -145 239 -315 305 -500 41 -118 65 -220 105 -448 18 -104 37 -193 43
-199 8 -8 16 -7 28 3 15 12 16 33 11 204 -9 296 -46 535 -116 745 -22 63 -37
116 -36 118 2 2 34 -37 73 -86 173 -224 268 -508 332 -991 19 -147 29 -176 55
-168 26 9 12 463 -21 686 -33 224 -95 412 -193 582 -86 149 -27 106 139 -102
135 -168 199 -285 246 -447 40 -140 54 -251 66 -541 10 -239 14 -276 30 -295
17 -20 19 -20 32 -3 8 11 18 59 23 115 12 146 9 554 -5 657 -27 192 -80 373
-148 507 l-26 52 28 -19 c136 -87 251 -243 308 -418 59 -179 75 -394 57 -727
-7 -118 -14 -227 -17 -241 -7 -35 22 -67 41 -47 17 17 58 205 86 388 28 187
30 458 5 605 -28 163 -91 330 -169 445 -45 66 -164 187 -227 230 -230 157
-507 228 -1123 290 -317 31 -987 124 -1347 186 -481 82 -867 190 -1185 330
-643 285 -1100 794 -1221 1359 -33 155 -18 303 63 642 20 84 40 150 44 147 4
-2 15 -28 24 -57 45 -138 195 -471 233 -517 l20 -25 12 26 c11 24 6 44 -48
180 -141 363 -224 681 -278 1069 -21 157 -30 628 -15 813 11 124 47 396 54
403 1 1 49 37 107 79 202 150 539 420 554 444 3 5 -11 12 -32 15 -380 67
-1063 205 -1487 302 -355 81 -1027 252 -1098 280 -9 3 -19 -9 -31 -41z m20922
-1282 l82 -78 21 -125 c19 -114 73 -333 310 -1265 271 -1062 360 -1707 294
-2130 -17 -106 -31 -149 -118 -355 -36 -85 -79 -189 -96 -230 -78 -189 -455
-597 -1086 -1175 -332 -305 -696 -669 -834 -835 -345 -413 -562 -791 -686
-1195 -19 -60 -34 -103 -34 -95 -1 8 4 141 9 295 32 903 -89 1707 -345 2292
-31 70 -59 135 -62 144 -3 12 13 21 77 39 94 27 81 35 154 -95 154 -274 261
-693 311 -1209 8 -88 15 -189 16 -225 0 -36 3 -84 7 -106 7 -38 8 -36 26 54
44 231 59 557 36 792 -27 271 -117 650 -200 845 -11 24 -15 46 -11 48 4 3 52
21 105 40 l97 36 29 -63 c133 -294 237 -811 257 -1274 3 -84 9 -153 14 -153 7
0 28 105 49 245 18 117 24 449 11 591 -21 228 -61 436 -121 638 -17 54 -29
100 -27 101 12 9 122 55 132 55 7 0 28 -35 45 -77 126 -301 202 -682 234
-1167 l12 -181 22 115 c32 169 42 275 42 461 0 187 -11 320 -41 489 -22 124
-67 310 -97 403 l-19 57 79 45 c44 25 82 45 83 45 8 0 67 -113 99 -191 96
-233 166 -594 183 -937 7 -148 11 -147 39 4 23 123 26 512 6 639 -24 148 -63
309 -108 444 -25 73 -43 137 -42 142 4 10 220 161 224 156 12 -12 67 -150 98
-244 66 -207 115 -502 134 -818 l8 -120 17 90 c42 220 46 496 12 720 -19 124
-66 319 -100 416 -14 40 -25 73 -25 74 0 0 50 47 110 104 l110 103 21 -49 c95
-218 162 -544 192 -933 l13 -165 17 90 c67 343 35 746 -90 1132 l-27 81 61 94
c120 184 184 328 233 522 99 392 46 806 -157 1236 l-54 114 30 126 c105 438
135 902 85 1330 -8 69 -17 138 -20 154 l-6 30 38 -32 c22 -17 76 -67 122 -109z
m-19109 -35 c-21 -174 -19 -704 4 -883 21 -160 47 -304 83 -456 l25 -107 -36
-72 c-319 -632 -306 -1257 36 -1791 l49 -75 -35 -100 c-135 -391 -170 -818
-97 -1174 17 -84 17 -85 19 -35 21 451 106 876 222 1102 l20 41 105 -105 104
-104 -29 -87 c-82 -242 -118 -443 -125 -707 -6 -202 5 -346 38 -485 l12 -55 8
140 c20 386 102 780 211 1008 l32 67 113 -81 c83 -59 112 -86 108 -98 -2 -9
-25 -74 -50 -146 -126 -367 -160 -770 -95 -1140 6 -36 14 -65 18 -65 5 0 11
62 14 138 18 371 100 750 216 987 75 152 64 146 152 95 41 -24 76 -44 78 -46
1 -1 -8 -38 -22 -81 -56 -172 -98 -365 -123 -560 -32 -253 -17 -626 34 -838
l16 -70 8 150 c17 343 71 682 149 955 31 104 113 317 129 334 10 10 140 -42
140 -56 0 -4 -16 -61 -35 -125 -83 -273 -125 -565 -125 -868 0 -219 9 -321 42
-495 l22 -115 7 75 c4 41 13 147 19 235 29 397 111 795 222 1072 60 150 48
143 159 103 52 -18 97 -36 101 -39 4 -4 -8 -48 -27 -98 -185 -491 -245 -1048
-165 -1528 33 -198 35 -198 48 11 26 419 90 786 187 1079 63 191 195 445 231
445 20 0 154 -40 154 -46 0 -3 -16 -37 -36 -77 -118 -234 -237 -619 -299 -972
-66 -374 -89 -667 -90 -1137 0 -201 -1 -366 -1 -365 -1 1 -23 53 -48 116 -135
331 -335 649 -615 981 -146 173 -496 522 -876 872 -361 333 -598 567 -754 744
-168 191 -184 215 -244 369 -30 77 -82 203 -115 280 -33 77 -67 165 -76 195
-60 200 -62 539 -5 955 57 421 152 851 384 1740 124 473 179 706 204 862 10
63 22 117 26 121 16 16 180 129 184 126 2 -2 -3 -54 -10 -116z m-4133 -6040
c27 1 259 14 516 28 257 14 489 24 515 22 54 -3 85 6 -682 -199 -357 -95 -434
-112 -516 -116 l-96 -5 -6 188 c-4 104 -7 383 -6 619 l1 430 112 -485 113
-485 49 3z m27399 243 l-7 -513 -97 4 c-83 4 -161 22 -571 132 -261 69 -522
139 -580 156 l-105 30 170 -6 c94 -3 348 -16 565 -28 217 -12 397 -19 400 -15
3 4 55 222 115 486 l110 478 3 -105 c2 -58 0 -336 -3 -619z m-4396 9 c79 -405
142 -889 143 -1100 0 -69 -7 -208 -16 -310 -31 -345 -67 -705 -73 -720 -3 -8
-16 77 -29 190 -61 538 -168 1131 -309 1714 -25 103 -45 193 -45 200 0 22 273
258 281 243 4 -6 25 -104 48 -217z m-18546 92 c64 -58 117 -106 117 -107 0 -1
-22 -94 -49 -206 -135 -554 -253 -1203 -302 -1654 -7 -60 -15 -116 -19 -123
-6 -12 -23 151 -61 578 -23 260 -21 341 11 635 28 247 65 496 105 710 47 249
56 285 69 278 6 -4 64 -54 129 -111z m266 -240 l63 -57 -81 -734 c-45 -403
-80 -735 -78 -737 2 -2 86 276 186 619 101 342 186 625 190 629 3 4 20 -3 36
-16 l29 -23 -37 -239 c-98 -626 -149 -1091 -252 -2314 -85 -995 -103 -1226
-115 -1455 -20 -359 -17 -356 -72 -89 -26 126 -62 303 -79 394 l-31 165 11
415 c17 624 33 911 72 1314 14 148 17 212 10 219 -7 7 -14 7 -20 1 -24 -25
-134 -612 -176 -938 -13 -103 -26 -190 -27 -192 -4 -3 -61 399 -74 516 -8 76
62 702 142 1260 63 444 218 1320 233 1320 4 0 35 -26 70 -58z m17922 -203
c121 -613 224 -1319 309 -2119 l30 -285 -35 -250 c-35 -241 -45 -293 -45 -227
0 108 -86 655 -151 964 -45 212 -51 230 -70 211 -9 -9 -8 -49 5 -175 40 -397
60 -782 77 -1423 l11 -430 -66 -330 c-37 -181 -75 -366 -85 -410 l-18 -80 -6
85 c-4 47 -11 180 -17 295 -13 245 -39 588 -80 1050 -16 182 -45 515 -65 740
-83 963 -164 1664 -245 2134 -12 74 -16 120 -10 131 12 23 78 72 83 63 2 -5
89 -297 193 -650 103 -353 189 -641 190 -640 1 1 -36 342 -82 757 l-84 755 52
47 c29 25 54 45 56 43 2 -1 25 -117 53 -256z m-2452 83 c369 -526 595 -1045
695 -1592 48 -263 60 -405 60 -700 0 -394 -25 -553 -150 -968 -116 -383 -128
-438 -102 -485 11 -21 10 -21 -8 -7 -10 8 -42 34 -70 57 -27 23 -108 81 -180
128 -76 51 -132 96 -137 109 -4 12 -31 35 -61 51 l-54 29 30 51 c63 107 178
351 217 461 218 615 194 1284 -68 1839 -28 60 -56 125 -61 147 -11 40 -33 50
-49 21 -5 -10 -11 -83 -13 -163 -6 -170 -30 -265 -104 -413 -118 -236 -218
-353 -685 -802 -91 -88 -196 -196 -233 -240 -137 -162 -248 -355 -307 -535
l-31 -97 -143 -11 c-161 -13 -386 -49 -547 -88 -60 -14 -112 -24 -115 -20 -8
7 145 236 269 402 127 169 300 377 580 696 406 463 552 646 690 867 228 363
388 781 438 1141 9 60 22 102 43 143 18 31 34 57 37 57 3 0 29 -35 59 -78z
m-13099 -364 c101 -285 296 -624 548 -957 200 -264 312 -391 632 -716 430
-437 510 -527 687 -770 100 -138 306 -446 301 -450 -2 -2 -42 7 -88 20 -194
56 -462 102 -767 131 l-52 5 -17 52 c-47 144 -133 292 -267 461 -44 54 -215
236 -380 405 -463 472 -594 654 -669 929 -16 59 -21 112 -23 231 -3 127 -6
156 -20 170 -15 15 -17 15 -31 -3 -8 -11 -14 -27 -14 -37 0 -9 -24 -68 -54
-130 -217 -452 -275 -1008 -160 -1529 51 -234 179 -558 302 -766 l30 -51 -56
-27 c-96 -47 -237 -134 -334 -207 -51 -38 -95 -69 -99 -69 -7 0 -105 297 -143
435 -100 366 -141 663 -140 1035 0 434 65 818 206 1230 113 326 221 534 441
844 l70 99 28 -109 c15 -60 46 -161 69 -226z m-1871 2 l73 -81 -77 -881 c-42
-484 -75 -882 -73 -883 2 -2 95 325 207 726 200 712 205 728 224 712 38 -35
38 -45 8 -320 -172 -1537 -201 -3376 -75 -4753 62 -679 174 -1365 309 -1882
13 -51 22 -94 20 -96 -5 -6 -190 308 -281 477 -46 86 -109 211 -139 278 l-56
122 -150 1698 c-83 934 -154 1706 -157 1716 -4 10 -40 -433 -81 -985 -40 -552
-75 -1010 -78 -1018 -7 -19 -9 -11 -81 270 l-58 225 7 115 c8 123 29 624 54
1255 32 802 66 1193 215 2475 38 327 77 666 86 753 10 86 20 157 23 157 3 0
39 -36 80 -80z m16901 -75 c6 -60 47 -418 90 -795 158 -1363 180 -1636 220
-2710 21 -553 35 -859 50 -1064 8 -114 7 -125 -21 -235 -45 -175 -151 -552
-155 -548 -3 3 -97 1247 -114 1515 -14 224 -58 763 -62 767 -2 2 -75 -800
-162 -1783 -87 -983 -162 -1813 -166 -1844 -7 -43 -29 -95 -86 -200 -95 -176
-255 -450 -260 -445 -3 2 7 51 20 108 67 285 147 745 195 1129 191 1505 184
3647 -18 5469 -25 231 -26 244 -9 270 27 43 56 76 61 71 2 -3 41 -135 85 -295
127 -457 302 -1076 317 -1125 11 -38 14 -41 14 -17 1 16 -33 416 -74 889 l-75
860 62 69 c74 82 70 86 88 -86z m-1535 75 c9 -16 13 -30 11 -30 -3 0 -12 14
-21 30 -9 17 -13 30 -11 30 3 0 12 -13 21 -30z m50 -91 c9 -17 15 -33 13 -35
-3 -2 -12 12 -21 31 -21 43 -13 47 8 4z m-14914 -515 l31 -45 38 -1087 c22
-598 41 -1107 42 -1132 2 -25 52 317 112 760 60 443 112 818 115 834 5 24 13
10 50 -95 l43 -124 -7 -145 c-7 -158 6 -443 31 -640 42 -342 139 -703 264
-983 l49 -111 -117 -120 c-64 -67 -120 -122 -124 -124 -3 -2 -13 21 -22 50
-75 259 -212 708 -216 708 -3 0 -33 -298 -66 -663 -53 -573 -64 -669 -82 -703
-14 -26 -22 -34 -25 -24 -3 8 -65 361 -137 783 l-131 768 21 382 c65 1221 80
1526 80 1673 0 60 4 93 10 89 5 -3 24 -26 41 -51z m15864 -569 c9 -192 27
-550 40 -795 13 -245 27 -515 31 -600 l6 -155 -136 -789 c-75 -433 -136 -793
-136 -800 -1 -6 -7 1 -15 16 -10 18 -35 242 -80 735 -36 389 -67 711 -68 715
-1 4 -58 -181 -127 -411 l-125 -418 -130 131 c-87 88 -123 131 -109 128 30 -5
76 58 148 203 95 190 165 433 203 705 22 161 25 667 4 877 -9 96 -10 147 -4
155 6 7 18 38 28 68 24 76 76 212 80 208 1 -2 54 -379 116 -840 63 -460 116
-835 118 -832 4 4 80 2051 81 2179 0 55 5 78 22 105 l23 35 7 -135 c4 -74 14
-292 23 -485z m-1210 268 c39 -129 77 -303 97 -443 19 -140 17 -488 -5 -625
-54 -346 -169 -653 -353 -940 l-34 -54 -77 31 c-43 17 -80 33 -82 34 -1 2 9
18 23 37 67 87 125 257 151 437 24 169 17 617 -10 661 -5 7 -12 6 -21 -2 -10
-8 -14 -38 -14 -116 0 -187 -40 -390 -109 -548 l-30 -70 -1 70 c0 39 -7 113
-15 165 -16 96 -90 335 -107 346 -5 3 -16 0 -24 -7 -18 -15 -16 -43 10 -154
39 -172 9 -381 -86 -595 l-25 -55 5 135 c4 116 1 146 -17 215 -22 81 -87 215
-108 222 -22 8 -23 -31 -2 -86 27 -70 37 -228 20 -298 -19 -74 -92 -233 -107
-233 -10 0 -14 14 -14 48 -1 72 -25 194 -48 239 -25 48 -80 105 -96 100 -22
-7 -18 -65 8 -109 13 -24 30 -63 36 -88 12 -43 11 -48 -21 -107 l-33 -62 -136
6 c-74 3 -137 7 -139 9 -7 6 33 113 75 197 99 202 212 341 577 714 155 159
311 326 347 372 178 225 276 444 296 660 l7 73 14 -33 c7 -18 29 -84 48 -146z
m-13441 62 c8 -55 29 -140 47 -190 88 -252 201 -404 610 -821 264 -269 390
-413 477 -547 51 -80 139 -260 148 -304 l6 -30 -144 -7 c-78 -4 -152 -9 -163
-12 -16 -4 -28 5 -50 38 -41 60 -40 113 3 199 36 74 39 100 17 119 -13 11 -21
8 -46 -16 -46 -44 -78 -119 -90 -214 -17 -141 -19 -150 -33 -150 -8 0 -16 8
-19 18 -3 9 -21 53 -41 97 -62 140 -67 277 -17 421 16 43 17 56 7 70 -12 15
-15 14 -33 -12 -71 -101 -107 -226 -107 -369 1 -60 6 -130 12 -155 6 -24 10
-46 8 -47 -6 -6 -96 223 -111 282 -37 147 -38 318 0 441 19 63 19 88 -1 105
-23 19 -36 -3 -73 -115 -46 -138 -62 -220 -70 -346 l-6 -115 -34 80 c-54 128
-89 284 -101 455 -6 84 -9 158 -6 165 2 7 -1 21 -8 31 -13 17 -14 17 -24 -2
-6 -12 -16 -97 -23 -191 -25 -361 33 -705 147 -875 19 -28 37 -55 40 -59 4 -8
-105 -63 -111 -57 -2 2 -28 45 -59 96 -177 293 -285 607 -326 947 -16 132 -14
430 5 570 9 66 27 170 40 230 23 104 105 378 111 372 2 -1 10 -47 18 -102z
m-9450 -1695 c-62 -751 -113 -1376 -113 -1390 0 -14 29 88 64 227 205 815 388
1396 550 1751 21 45 39 81 41 79 2 -2 -89 -518 -201 -1147 -113 -629 -205
-1148 -205 -1154 0 -6 35 27 77 74 119 132 357 364 447 436 372 299 870 529
1470 679 176 45 445 99 453 92 2 -2 -115 -59 -259 -127 -551 -257 -850 -427
-1173 -670 -361 -271 -633 -546 -788 -798 -97 -158 -256 -476 -244 -488 2 -2
30 29 63 69 102 124 364 385 484 482 280 225 714 497 1290 807 210 113 440
231 440 224 0 -2 -39 -32 -87 -67 -587 -421 -1156 -946 -1597 -1471 -27 -32
-46 -58 -43 -58 3 0 77 47 164 104 397 261 798 472 1125 595 493 185 983 271
1532 271 219 0 508 -18 522 -33 3 -3 -12 -8 -33 -11 -418 -75 -1192 -315
-1863 -579 -403 -158 -743 -339 -1172 -624 -436 -289 -971 -717 -1337 -1068
l-104 -100 6 440 c11 697 59 1935 98 2495 52 747 178 1442 362 1985 56 166
133 354 141 343 2 -1 -48 -617 -110 -1368z m32225 1234 c203 -500 360 -1244
426 -2014 41 -490 99 -1889 111 -2685 l7 -430 -94 90 c-674 646 -1538 1259
-2219 1575 -487 226 -1509 567 -2028 678 -129 27 -167 38 -148 43 114 31 651
39 912 14 794 -76 1437 -321 2263 -862 79 -52 145 -93 146 -91 10 10 -317 371
-520 573 -338 339 -628 589 -1025 884 -91 68 -169 128 -175 134 -17 17 395
-197 635 -331 479 -267 859 -509 1090 -696 106 -86 342 -319 451 -446 51 -60
95 -108 96 -106 6 6 -107 247 -163 349 -123 222 -232 367 -398 531 -219 215
-448 400 -706 571 -296 196 -508 307 -1148 603 -29 13 -51 26 -49 28 6 6 222
-34 375 -71 649 -156 1155 -385 1541 -695 108 -87 348 -321 460 -448 35 -40
66 -70 68 -68 2 2 -86 509 -197 1127 -110 618 -203 1138 -205 1154 -9 49 40
-49 111 -227 145 -361 315 -926 480 -1590 32 -130 60 -236 62 -234 3 3 -211
2645 -222 2740 -7 58 9 34 63 -100z m-3154 -941 l-7 -153 -82 0 c-73 0 -136
14 -591 135 -281 74 -548 146 -595 160 l-85 25 150 -6 c83 -3 337 -16 565 -29
228 -13 418 -20 421 -17 4 4 56 220 115 480 l109 473 3 -458 c2 -252 0 -527
-3 -610z m-25880 582 c60 -258 108 -471 109 -472 1 -1 190 9 421 22 231 13
488 26 570 29 l150 6 -85 -25 c-47 -14 -315 -86 -596 -160 -468 -124 -518
-135 -597 -135 l-87 0 0 607 c0 333 2 604 4 602 2 -2 52 -215 111 -474z
m20372 403 c-3 -7 -5 -2 -5 12 0 14 2 19 5 13 2 -7 2 -19 0 -25z m4898 -2497
c-4 -10 -26 -12 -98 -9 -72 4 -145 19 -337 70 -135 37 -393 105 -575 153 -181
49 -333 91 -337 94 -8 7 173 -1 675 -29 196 -11 379 -20 405 -20 l49 0 109
474 109 474 3 -597 c1 -328 0 -602 -3 -610z m-24659 674 c58 -253 107 -461
109 -463 2 -2 216 8 477 22 260 14 516 28 568 31 71 4 89 2 71 -5 -14 -6 -279
-78 -590 -160 -535 -142 -570 -150 -658 -150 l-93 0 0 438 c0 240 -2 516 -5
612 -4 122 -2 169 5 155 5 -11 57 -227 116 -480z m7304 120 c287 -34 638 -119
940 -229 315 -115 549 -225 977 -457 833 -453 1221 -593 1885 -683 617 -84
1614 -93 2288 -21 202 22 337 43 521 81 476 97 843 248 1559 639 731 400 1270
589 1900 667 158 20 623 17 780 -5 187 -26 367 -64 539 -113 172 -50 183 -55
226 -97 16 -16 84 -67 150 -114 740 -526 1205 -1414 1172 -2238 -10 -246 -55
-459 -144 -685 -132 -336 -329 -634 -608 -918 -379 -388 -841 -682 -1395 -887
-118 -44 -390 -128 -396 -122 -1 1 24 88 57 192 33 105 78 258 101 340 22 83
44 156 48 164 4 7 67 35 139 61 350 128 672 326 922 567 206 199 333 369 445
598 227 461 253 945 79 1430 -61 168 -79 223 -121 360 -116 384 -348 651 -673
775 -58 22 -135 56 -171 76 -442 240 -863 283 -1438 144 -283 -68 -560 -173
-1072 -405 -1167 -529 -1811 -721 -2815 -839 -115 -14 -359 -39 -541 -57
l-332 -33 -368 37 c-203 20 -430 46 -504 57 -284 43 -1058 192 -1275 246 -333
84 -923 310 -1530 587 -637 291 -961 401 -1360 464 -135 21 -443 23 -560 4
-200 -32 -347 -80 -525 -172 -160 -82 -311 -197 -470 -358 -284 -286 -467
-583 -583 -946 -68 -212 -82 -310 -82 -575 1 -206 4 -248 23 -339 137 -626
572 -1155 1222 -1486 139 -70 184 -90 340 -145 85 -31 106 -42 111 -61 4 -13
28 -98 53 -189 26 -91 69 -238 98 -327 28 -90 49 -165 47 -168 -8 -7 -264 70
-399 121 -327 122 -572 248 -855 438 -652 439 -1123 1087 -1254 1728 -35 170
-44 278 -38 496 5 231 25 368 82 577 93 337 264 677 491 977 162 212 480 505
674 620 103 61 384 145 640 192 117 21 183 29 395 50 85 9 477 -4 605 -19z
m-53 -685 c137 -18 130 -9 73 -100 -192 -307 -347 -734 -415 -1142 -6 -41 8
-78 30 -78 21 0 23 7 70 188 80 306 154 500 254 664 74 121 272 399 289 406
14 5 148 -28 235 -57 l48 -17 -71 -48 c-134 -92 -237 -229 -286 -381 -23 -71
-27 -105 -35 -295 -4 -118 -12 -231 -17 -250 -27 -109 -85 -184 -199 -261
-118 -80 -180 -154 -231 -275 -36 -86 -66 -294 -42 -294 6 0 10 13 10 29 0 60
31 188 59 246 43 88 86 133 234 243 163 123 262 218 289 278 22 51 25 106 18
369 -3 128 0 173 13 222 42 160 121 236 346 337 l65 28 130 -52 c148 -60 535
-235 549 -249 4 -4 -24 -58 -66 -122 -187 -289 -372 -656 -507 -1008 l-48
-124 -7 60 c-12 109 12 232 95 478 71 210 90 294 90 401 0 94 -16 167 -52 238
-14 27 -23 35 -30 28 -7 -7 -4 -24 10 -54 34 -70 45 -133 39 -216 -7 -91 -33
-170 -114 -347 -93 -201 -98 -219 -98 -375 0 -74 4 -184 9 -245 l8 -110 -51
-157 c-28 -86 -71 -230 -96 -319 -25 -89 -58 -182 -72 -206 -20 -35 -24 -49
-16 -66 8 -17 -1 -70 -38 -227 -27 -113 -70 -305 -96 -427 l-47 -223 -26 79
c-51 150 -120 229 -272 308 -113 58 -178 110 -232 187 -47 66 -76 129 -96 213
-14 61 -15 59 123 268 142 215 185 324 194 492 8 144 -7 165 -23 33 -23 -181
-57 -250 -288 -575 -97 -137 -140 -221 -170 -333 l-23 -86 -11 89 c-47 367
-63 933 -34 1240 51 553 172 1048 372 1529 36 86 28 83 157 66z m10345 -132
c74 -188 118 -315 168 -492 l42 -146 -47 -72 c-90 -140 -160 -307 -186 -446
-17 -93 -6 -274 26 -407 85 -351 95 -473 61 -695 -19 -121 -18 -290 1 -324 18
-32 23 -1 12 60 -16 85 -5 214 37 409 21 101 38 213 41 276 5 99 4 110 -20
162 -54 118 -69 456 -29 622 19 75 119 311 128 302 7 -6 55 -261 73 -388 42
-285 54 -490 48 -864 -7 -459 -38 -750 -132 -1220 -54 -275 -161 -702 -164
-664 -1 9 -40 198 -46 226 -3 14 -19 29 -38 36 -42 18 -148 132 -175 189 -43
87 -45 149 -11 270 8 30 10 51 4 57 -6 4 -41 16 -79 25 -92 23 -159 58 -222
118 -61 57 -106 124 -129 188 -9 25 -38 133 -65 240 -186 746 -421 1360 -710
1852 -44 76 -80 140 -80 142 0 2 28 -15 63 -38 35 -23 133 -76 218 -118 324
-159 423 -258 436 -436 7 -81 17 -78 27 8 13 110 -24 215 -107 306 -66 73
-140 124 -341 238 -181 103 -272 164 -325 219 l-34 36 69 31 c162 75 346 155
439 192 255 102 613 208 620 185 2 -7 11 -59 20 -117 9 -58 37 -206 62 -330
37 -187 46 -251 50 -380 7 -186 -3 -272 -60 -515 l-41 -180 0 -205 c1 -176 5
-226 27 -353 28 -154 34 -174 48 -160 4 4 1 53 -6 108 -17 116 -19 378 -5 480
17 115 49 232 107 385 64 169 71 225 54 402 -20 203 -56 383 -141 700 -27 101
-46 185 -44 188 7 6 219 38 264 39 l36 1 56 -142z m2767 -1337 c1 -46 -1 -82
-4 -80 -2 3 -16 70 -30 150 -13 79 -27 155 -30 169 -3 14 10 -15 29 -65 30
-76 35 -103 35 -174z m-16043 69 c-14 -73 -14 -74 -15 -26 -1 27 5 65 11 83
18 50 20 28 4 -57z m6320 -910 c153 -13 338 -48 460 -89 49 -17 233 -94 409
-171 446 -197 572 -236 786 -247 221 -12 418 44 844 237 371 168 551 225 830
261 135 17 433 7 570 -21 423 -84 663 -242 1103 -725 364 -400 531 -554 721
-664 149 -87 328 -143 500 -156 56 -5 91 -12 91 -19 1 -6 20 -155 44 -331 24
-176 42 -322 40 -324 -7 -7 -275 38 -385 65 -448 107 -855 322 -1226 646 -51
44 -170 162 -265 262 -439 459 -608 592 -857 670 -147 47 -247 59 -426 53
-167 -6 -245 -20 -380 -64 -133 -43 -235 -98 -505 -269 -311 -197 -451 -254
-641 -262 -95 -4 -130 -1 -200 17 -111 29 -306 126 -500 250 -296 189 -398
239 -584 286 -311 79 -624 47 -885 -91 -178 -94 -280 -185 -750 -670 -102
-105 -234 -230 -295 -278 -338 -269 -718 -459 -1067 -535 -183 -39 -297 -53
-335 -39 -29 11 -38 10 -68 -6 -19 -11 -37 -17 -40 -14 -5 5 78 659 90 713 4
19 12 21 112 22 242 3 448 80 673 251 93 71 298 274 546 542 274 295 435 431
629 528 213 106 481 168 786 180 25 1 104 -3 175 -8z m-8572 -638 c63 -283
116 -515 118 -516 2 -1 235 12 518 30 678 42 706 43 689 34 -14 -8 -392 -107
-970 -254 -248 -64 -308 -76 -376 -76 l-81 0 -6 283 c-10 460 -16 1033 -11
1022 2 -5 56 -241 119 -523z m21085 63 c-4 -253 -8 -547 -8 -654 l-1 -193
-102 5 c-91 4 -161 19 -593 131 -572 148 -748 195 -754 202 -3 2 26 2 65 -1
38 -3 263 -17 499 -31 237 -14 482 -29 545 -33 63 -4 116 -7 116 -7 1 1 45
197 98 436 114 512 137 612 141 608 1 -2 -1 -210 -6 -463z m-22583 -763 c1 -2
231 10 511 27 587 36 722 43 708 36 -14 -7 -422 -113 -875 -228 -274 -70 -400
-97 -466 -102 l-92 -6 -6 113 c-3 62 -8 358 -11 658 l-5 545 117 -520 c64
-286 118 -522 119 -523z m24194 437 c-5 -327 -10 -620 -10 -652 l0 -58 -97 6
c-79 6 -198 33 -603 137 -695 178 -747 192 -728 196 9 2 283 -13 608 -33 326
-20 594 -34 597 -31 4 4 119 508 218 959 10 43 19 76 21 74 3 -2 0 -271 -6
-598z m-4533 549 c-3 -7 -5 -2 -5 12 0 14 2 19 5 13 2 -7 2 -19 0 -25z m-10
-60 c-3 -7 -5 -2 -5 12 0 14 2 19 5 13 2 -7 2 -19 0 -25z m-15738 -52 c1 -42
-5 -29 -12 24 -4 30 -3 38 3 25 5 -11 9 -33 9 -49z m2441 19 c0 -36 43 -147
81 -211 41 -67 120 -143 257 -247 117 -89 178 -164 212 -259 34 -95 38 -273
11 -453 -11 -77 -20 -162 -20 -190 1 -27 -8 -117 -20 -200 -29 -206 -48 -404
-62 -633 -7 -106 -16 -187 -20 -180 -4 7 -47 128 -97 268 -190 539 -325 1017
-418 1475 -32 161 -35 190 -30 275 9 131 22 199 58 296 30 84 48 106 48 59z
m-2433 -87 c-3 -7 -5 -2 -5 12 0 14 2 19 5 13 2 -7 2 -19 0 -25z m-5646 -518
c61 -278 112 -506 113 -507 1 -1 211 11 466 27 256 16 530 31 610 34 178 7
226 23 -531 -173 -544 -140 -593 -151 -677 -151 l-90 0 -6 598 c-3 328 -8 624
-10 657 -3 40 -2 53 4 40 5 -11 59 -247 121 -525z m27535 33 c-3 -274 -9 -567
-12 -650 l-6 -153 -85 0 c-61 0 -118 8 -206 31 -246 61 -1083 279 -1112 289
-41 13 134 6 715 -30 256 -16 468 -26 471 -22 3 4 57 238 120 520 62 281 115
512 117 512 2 0 1 -224 -2 -497z m-29152 -202 c63 -282 117 -515 120 -519 6
-5 999 50 1166 65 36 3 63 3 60 0 -6 -7 -434 -119 -972 -256 -265 -68 -331
-81 -397 -81 l-79 0 -6 428 c-3 235 -9 531 -12 657 -3 127 -4 228 -1 225 3 -3
58 -236 121 -519z m30761 -152 l-8 -641 -101 5 c-88 4 -162 20 -571 126 -625
162 -768 201 -775 207 -3 4 22 4 55 0 33 -3 114 -8 180 -11 66 -4 295 -17 509
-31 213 -13 410 -24 435 -24 l47 0 114 510 c63 280 116 508 118 505 2 -2 1
-293 -3 -646z m-10897 503 c23 -18 78 -46 123 -63 72 -28 83 -36 96 -67 13
-31 13 -43 -2 -110 -31 -138 -14 -254 48 -336 14 -18 57 -54 95 -79 51 -35 76
-60 96 -97 32 -58 70 -222 61 -265 -9 -48 -123 -407 -182 -575 -99 -282 -126
-355 -133 -363 -4 -4 -10 63 -13 150 -12 311 -69 762 -151 1215 -41 221 -127
643 -142 693 -4 11 9 0 29 -25 19 -25 53 -60 75 -78z m-6093 53 c193 -40 343
-108 625 -282 226 -140 345 -201 473 -246 87 -30 99 -32 237 -32 137 1 150 3
237 32 124 43 221 93 455 235 390 235 600 309 888 310 301 1 548 -97 783 -312
66 -60 66 -62 53 -89 -27 -51 -56 -155 -91 -328 -19 -94 -52 -218 -72 -275
-51 -142 -171 -378 -271 -530 -74 -113 -83 -130 -75 -155 5 -15 14 -28 20 -30
21 -7 223 252 332 428 169 272 261 510 279 720 l7 80 168 -161 167 -162 -34
-61 c-49 -87 -88 -192 -136 -358 -54 -186 -69 -233 -118 -354 -93 -231 -190
-430 -329 -672 -54 -95 -62 -116 -53 -133 6 -11 15 -20 20 -20 27 0 370 504
479 705 134 246 219 474 242 652 6 48 14 103 18 122 l6 34 95 -83 c90 -78 345
-275 386 -298 18 -10 18 -13 -15 -79 -18 -37 -112 -239 -208 -448 -395 -857
-505 -1051 -1186 -2103 l-67 -102 -32 14 c-493 214 -922 330 -1453 391 -190
22 -630 31 -825 16 -532 -41 -1066 -165 -1518 -353 -79 -33 -145 -58 -146 -56
-10 11 -420 650 -506 788 -235 378 -455 785 -632 1170 -42 91 -138 299 -213
463 -76 165 -134 302 -129 306 5 4 61 44 124 89 63 45 174 131 245 190 l130
109 2 -36 c26 -375 198 -752 593 -1305 73 -102 139 -186 146 -186 8 0 16 11
20 24 4 17 -14 57 -71 156 -187 326 -333 658 -416 944 -60 206 -93 298 -144
394 l-45 85 167 162 c93 90 169 162 171 160 1 -1 6 -35 12 -76 32 -254 240
-696 472 -1002 124 -164 123 -163 142 -148 28 23 18 59 -43 149 -194 289 -297
527 -363 832 -22 102 -51 217 -64 255 -41 115 -42 106 23 164 127 115 320 225
475 272 166 51 390 60 563 24z m-4305 -435 c8 -5 11 -10 5 -10 -5 0 -17 5 -25
10 -8 5 -10 10 -5 10 6 0 17 -5 25 -10z m1185 -104 c-81 -20 -135 -27 -135
-17 0 5 33 13 73 19 99 13 122 12 62 -2z m11611 -98 c-7 -18 -80 -184 -161
-368 -81 -184 -171 -389 -200 -455 -29 -66 -64 -147 -79 -179 -14 -33 -25 -61
-23 -62 2 -2 172 165 378 370 205 206 375 373 377 371 2 -2 -89 -185 -202
-407 l-206 -403 -154 -187 c-451 -550 -858 -999 -1451 -1597 -374 -377 -703
-695 -1015 -981 -205 -188 -540 -482 -540 -475 0 12 872 1052 1141 1360 489
562 693 788 939 1040 191 196 182 189 -235 -191 -843 -768 -1612 -1527 -2010
-1983 -89 -102 -121 -132 -67 -63 47 60 1919 2489 1990 2582 81 106 88 113
-288 -290 -173 -184 -341 -364 -375 -400 -34 -36 -271 -288 -526 -560 -255
-272 -493 -526 -529 -564 -36 -39 -78 -84 -93 -100 -325 -350 -671 -715 -674
-712 -2 2 357 516 797 1142 673 958 787 1125 718 1051 -46 -48 -459 -489 -918
-981 -459 -491 -837 -892 -838 -890 -3 2 1023 1734 1051 1774 37 52 -85 -93
-647 -767 -344 -414 -628 -753 -631 -753 -6 0 -20 -32 335 765 351 790 344
773 332 760 -5 -5 -235 -322 -512 -703 l-503 -692 -71 40 c-39 23 -95 53 -123
67 -29 15 -53 30 -53 34 0 4 50 79 112 166 629 889 1094 1716 1344 2388 26 72
49 132 50 133 1 2 51 -21 111 -50 59 -30 127 -62 149 -71 l42 -16 -105 -338
c-57 -186 -140 -446 -184 -579 -44 -132 -77 -248 -74 -256 11 -27 35 -30 45
-5 5 12 67 168 139 347 145 364 310 761 320 773 4 4 47 -2 97 -13 53 -13 146
-23 232 -27 78 -3 141 -9 139 -12 -36 -65 -156 -322 -186 -398 -22 -56 -88
-198 -147 -315 -90 -179 -105 -216 -97 -238 17 -49 38 -35 93 60 78 136 178
285 253 377 91 112 165 228 232 363 44 91 55 122 51 148 -3 23 -1 32 9 32 15
0 17 -9 40 -150 21 -127 51 -281 81 -415 18 -75 23 -123 19 -155 -5 -35 -1
-54 17 -89 27 -53 58 -68 87 -43 23 19 110 235 247 612 48 135 88 246 89 247
0 1 45 9 100 18 588 94 1213 413 1680 858 50 47 91 86 93 87 1 0 -4 -15 -12
-32z m-25721 -1161 c-52 -636 -95 -1169 -95 -1184 0 -15 34 103 74 262 157
614 304 1083 435 1385 40 91 65 134 55 94 -4 -19 -354 -1973 -354 -1980 0 -2
44 45 99 104 191 208 354 353 531 472 285 192 672 352 1115 464 119 29 366 78
372 73 2 -2 -63 -35 -144 -72 -724 -333 -1087 -565 -1482 -950 -192 -187 -316
-364 -441 -629 -74 -157 -78 -169 -38 -121 135 164 341 369 480 477 188 147
508 351 863 550 186 104 590 318 601 318 4 0 -57 -48 -137 -107 -342 -253
-609 -482 -905 -777 -187 -188 -431 -456 -442 -487 -2 -5 65 36 150 90 511
330 914 516 1353 625 364 91 795 132 1130 107 154 -11 248 -21 242 -27 -1 -2
-38 -10 -82 -19 -513 -104 -1441 -417 -1900 -641 -544 -265 -1160 -703 -1752
-1245 -83 -76 -153 -139 -155 -139 -16 0 27 1388 67 2180 39 764 113 1283 255
1801 61 223 187 572 197 543 2 -5 -40 -530 -92 -1167z m36841 1116 c179 -406
327 -1080 388 -1778 45 -503 127 -2695 101 -2695 -3 0 -61 51 -128 114 -540
506 -1208 986 -1742 1253 -412 207 -1326 522 -1847 638 -90 20 -164 38 -166
40 -16 16 371 38 553 31 466 -18 873 -101 1285 -263 252 -99 637 -309 943
-515 49 -33 90 -58 92 -56 9 8 -225 270 -399 447 -296 299 -559 529 -886 774
-216 161 -223 168 -130 122 530 -264 1144 -635 1425 -861 88 -71 306 -286 418
-414 l57 -65 -20 50 c-38 90 -136 278 -194 373 -110 177 -240 321 -471 521
-351 303 -712 518 -1389 825 -32 14 -57 28 -55 30 7 8 213 -33 380 -75 314
-78 626 -193 869 -320 257 -135 430 -269 685 -531 163 -167 178 -180 172 -148
-118 654 -347 1944 -347 1953 1 18 56 -103 115 -253 111 -284 237 -699 376
-1245 49 -191 78 -287 74 -250 -3 33 -46 555 -95 1160 -49 605 -92 1121 -95
1148 -3 26 -3 47 0 47 3 0 17 -26 31 -57z m-25136 -198 c430 -344 942 -581
1437 -665 65 -11 120 -24 124 -28 3 -4 21 -50 39 -102 37 -107 176 -480 240
-643 47 -119 65 -139 107 -112 34 23 56 80 50 129 -4 26 5 86 24 170 26 114
99 503 99 527 0 5 9 9 19 9 14 0 37 -32 86 -117 56 -97 454 -772 502 -850 30
-49 67 -4 45 54 -6 16 -95 224 -199 463 l-189 435 31 3 c86 7 251 35 316 52
86 23 89 23 89 11 0 -5 74 -186 163 -403 90 -216 192 -467 227 -558 35 -91 67
-171 73 -178 13 -16 37 3 37 29 0 10 -31 112 -70 226 -38 115 -114 354 -170
533 -55 179 -107 345 -115 368 l-14 44 42 16 c23 9 88 40 144 69 106 55 123
60 123 42 0 -18 155 -400 226 -554 269 -591 674 -1271 1176 -1978 54 -76 98
-141 98 -145 0 -4 -52 -34 -116 -67 -113 -59 -116 -60 -130 -40 -8 11 -232
318 -496 682 -265 364 -483 661 -485 660 -1 -2 148 -342 332 -757 185 -414
334 -754 332 -756 -1 -2 -286 337 -632 752 -346 416 -634 758 -638 761 -5 3
-2 -5 6 -18 59 -93 1037 -1743 1034 -1746 -2 -2 -408 429 -901 957 -494 528
-903 963 -909 967 -7 4 4 -15 24 -42 321 -449 1530 -2178 1525 -2182 -3 -4 -7
-4 -9 -2 -15 18 -2421 2586 -2460 2624 l-50 50 50 -65 c353 -457 2019 -2619
2026 -2630 20 -27 -7 2 -133 144 -435 490 -1322 1358 -2160 2111 -161 145
-156 137 41 -70 335 -350 965 -1072 1585 -1815 360 -432 423 -508 399 -489
-129 101 -612 540 -995 903 -224 212 -896 893 -1116 1131 -388 418 -899 1011
-1019 1180 -23 33 -131 236 -240 450 l-197 390 386 -385 c213 -212 383 -374
378 -360 -6 14 -109 251 -231 528 -122 277 -221 505 -221 508 0 3 37 -29 83
-70 45 -41 125 -110 177 -151z m17029 -430 c-4 -220 -7 -514 -8 -652 l-1 -253
-91 0 c-84 0 -130 10 -657 146 -312 81 -596 155 -632 165 l-65 19 150 -6 c83
-3 357 -18 610 -34 253 -16 460 -28 461 -27 1 1 52 229 113 507 113 507 121
544 124 538 1 -2 -1 -183 -4 -403z m-19784 -125 c63 -282 116 -514 117 -516 2
-1 210 10 463 26 547 34 752 45 745 37 -5 -5 -354 -97 -941 -246 -274 -70
-327 -81 -401 -81 l-86 0 -6 378 c-3 207 -9 501 -12 652 -3 151 -3 272 0 269
3 -3 57 -236 121 -519z m-1614 -180 c61 -278 115 -509 120 -514 7 -8 905 39
1154 60 135 12 147 15 -690 -202 -416 -107 -505 -127 -586 -131 l-97 -5 -6
193 c-8 257 -17 1127 -11 1114 2 -5 54 -237 116 -515z m23009 -15 c-5 -292 -9
-585 -10 -652 l0 -123 -80 0 c-65 0 -126 12 -337 66 -542 138 -1028 265 -1033
271 -3 3 29 3 70 -1 230 -18 1150 -69 1156 -64 5 5 234 1019 234 1036 0 3 2 3
4 1 3 -3 1 -243 -4 -534z m1616 -87 c-3 -222 -9 -517 -12 -656 l-6 -252 -97 6
c-53 3 -145 19 -206 35 -60 15 -339 87 -620 159 -280 73 -512 134 -515 137 -6
6 17 5 714 -38 274 -17 502 -27 506 -22 4 4 58 239 120 521 62 281 115 512
118 512 2 0 1 -181 -2 -402z m-26231 -148 c59 -267 109 -487 111 -488 1 -2
231 10 511 27 279 18 555 34 613 36 133 6 169 17 -570 -173 -469 -120 -603
-151 -677 -156 -51 -3 -94 -2 -96 2 -3 4 -7 297 -10 652 -4 355 -2 632 2 615
4 -16 57 -248 116 -515z m-1614 -175 c61 -275 112 -501 112 -502 1 0 207 12
457 28 554 34 767 43 725 29 -33 -11 -485 -129 -936 -244 -255 -66 -307 -76
-381 -76 l-86 0 -6 508 c-3 279 -8 572 -11 652 -3 96 -1 138 5 125 5 -11 60
-245 121 -520z m29455 -52 c-4 -324 -9 -617 -12 -652 l-6 -63 -101 4 c-90 4
-160 20 -592 132 -269 70 -544 141 -610 158 -66 17 -123 34 -127 37 -9 8 45 5
672 -34 294 -18 538 -30 541 -26 4 3 58 237 120 518 63 282 116 513 118 513 2
0 0 -264 -3 -587z m-14771 -1683 c1398 -84 2530 -679 3039 -1599 25 -46 46
-87 46 -91 0 -13 -112 -67 -195 -93 -89 -29 -246 -70 -250 -65 -1 2 -30 45
-64 96 -300 450 -746 818 -1274 1052 -318 140 -629 224 -1047 282 -153 21
-740 18 -910 -5 -743 -100 -1395 -371 -1905 -792 -174 -144 -466 -456 -556
-594 l-16 -25 -119 31 c-147 38 -220 66 -259 97 l-30 24 24 43 c13 24 57 94
96 154 460 700 1260 1201 2236 1399 395 81 790 109 1184 86z m175 -594 c774
-109 1412 -393 1975 -879 107 -92 260 -246 344 -346 36 -43 39 -50 24 -55 -43
-13 -619 -106 -660 -106 -6 0 -42 37 -80 81 -413 492 -1191 754 -2148 725
-630 -19 -1127 -140 -1497 -365 -158 -96 -325 -247 -409 -370 -23 -34 -41 -51
-56 -51 -58 0 -624 89 -637 101 -14 13 132 188 284 339 527 528 1203 844 2003
935 167 19 696 13 857 -9z"/>
<path d="M23567 10573 c-17 -16 -3 -55 48 -136 64 -103 143 -211 220 -301 55
-66 72 -94 35 -61 -11 10 -20 13 -20 7 0 -6 5 -14 10 -17 6 -4 85 -106 175
-226 419 -559 742 -1116 884 -1525 17 -49 34 -96 37 -104 3 -9 20 13 46 60
383 706 688 1190 1049 1667 59 78 100 139 91 136 -9 -4 12 29 45 73 187 247
274 376 271 402 -2 15 -8 27 -14 27 -5 0 -39 -34 -74 -75 -326 -383 -699 -629
-1055 -696 -124 -23 -398 -15 -540 16 -439 95 -844 338 -1111 665 -75 94 -84
102 -97 88z"/>
<path d="M16253 24803 c-116 -248 -184 -492 -214 -770 -15 -148 -7 -542 16
-683 104 -664 400 -1252 851 -1690 328 -319 696 -521 1209 -665 394 -110 807
-170 1555 -225 151 -11 318 -27 370 -35 52 -7 225 -30 385 -50 555 -69 889
-141 1141 -244 202 -83 368 -228 449 -395 71 -145 78 -182 64 -376 -30 -429
29 -879 157 -1198 19 -46 34 -87 34 -93 0 -5 -35 -9 -77 -9 -149 0 -299 -37
-434 -106 -309 -159 -456 -509 -380 -903 54 -277 220 -595 476 -911 354 -438
691 -624 933 -515 29 14 64 33 78 44 28 22 80 85 87 104 2 7 51 -31 108 -83
160 -147 553 -496 659 -586 277 -235 522 -404 733 -508 246 -121 354 -146 627
-146 270 0 381 26 625 145 328 160 602 377 1403 1104 46 42 87 77 91 79 3 1
15 -14 26 -34 63 -117 231 -177 390 -140 267 63 567 332 861 771 167 251 268
477 305 685 20 112 15 308 -9 402 -71 267 -246 456 -505 544 -95 33 -221 54
-318 54 -44 0 -79 2 -79 5 0 2 12 35 26 72 59 156 124 457 159 728 17 134 24
388 15 605 -5 122 -4 127 26 201 76 187 212 328 419 432 90 45 312 116 485
155 194 45 386 75 799 127 201 26 368 48 371 50 3 2 112 11 241 20 769 52
1230 117 1634 230 528 148 937 381 1265 721 456 473 747 1123 809 1804 34 368
-16 768 -135 1087 -50 134 -130 303 -144 303 -6 0 -26 -11 -43 -24 -45 -34
-99 -59 -199 -94 -150 -53 -280 -74 -499 -79 -217 -6 -376 5 -629 42 l-165 25
-270 -35 c-148 -20 -281 -38 -295 -42 -15 -3 40 -15 143 -29 93 -13 255 -37
360 -54 437 -72 771 -96 986 -71 217 26 415 98 535 195 43 35 61 45 66 35 12
-19 62 -198 58 -209 -4 -13 -401 -200 -496 -234 -133 -47 -254 -66 -432 -66
-233 0 -415 30 -651 106 -117 38 -137 36 -125 -9 7 -28 89 -69 246 -122 501
-169 1090 -130 1436 95 35 24 66 41 68 39 2 -2 12 -58 22 -124 27 -169 27
-630 1 -790 -70 -436 -211 -796 -446 -1136 -351 -511 -893 -896 -1512 -1074
-389 -112 -986 -197 -1669 -237 -281 -16 -1377 -17 -1650 -1 -483 28 -763 -42
-866 -217 -10 -16 -21 -30 -24 -30 -3 0 -47 82 -98 183 -51 100 -151 296 -222
435 -71 139 -135 270 -141 290 -10 35 -7 46 54 182 231 521 485 908 807 1230
277 278 543 468 925 660 406 205 806 341 1510 516 171 42 316 82 324 89 20 19
5 55 -25 55 -45 0 -318 -41 -474 -71 -742 -144 -1457 -426 -2015 -793 -204
-135 -350 -252 -519 -416 -341 -332 -535 -629 -666 -1018 -21 -62 -40 -110
-43 -105 -13 21 -57 251 -68 350 l-11 111 60 79 c33 44 133 183 222 309 232
327 307 421 465 579 168 169 293 267 654 512 l273 186 117 24 c210 45 504 153
766 283 75 37 91 48 65 45 -55 -8 -573 -52 -925 -80 l-320 -25 -84 -93 c-284
-312 -523 -498 -752 -584 -142 -53 -217 -66 -379 -66 -167 0 -291 23 -465 88
-128 48 -143 56 -80 47 28 -4 111 -7 185 -6 114 0 152 5 245 28 298 76 552
225 820 480 l80 76 -88 -6 -89 -7 -123 -82 c-299 -200 -559 -296 -800 -297
-127 -1 -205 16 -304 67 -75 38 -183 123 -141 111 274 -78 704 -19 1025 139
l90 45 -125 -6 c-101 -5 -146 -12 -235 -39 -161 -48 -234 -58 -371 -52 -86 3
-137 11 -183 27 -63 21 -73 22 -336 15 l-271 -8 -16 -111 c-23 -155 -61 -269
-105 -314 l-35 -37 7 35 c21 116 25 159 25 283 l0 137 -29 0 c-29 0 -29 -1
-36 -67 -21 -233 -69 -387 -178 -565 -46 -75 -71 -90 -166 -103 l-55 -7 50 48
c96 93 139 228 156 489 12 174 10 205 -16 205 -11 0 -16 -21 -21 -87 -15 -189
-57 -340 -123 -434 -54 -78 -166 -158 -189 -135 -3 3 8 36 25 73 69 151 100
277 109 451 l6 122 -49 0 -50 0 -12 -112 c-14 -135 -44 -281 -76 -380 l-23
-73 -33 70 c-41 88 -86 263 -102 400 l-12 106 -100 -3 -100 -3 -17 -115 c-26
-181 -58 -297 -106 -394 -20 -39 -27 -46 -34 -34 -20 36 -71 272 -85 398 -9
74 -18 141 -20 148 -2 7 -21 12 -49 12 l-45 0 0 -68 c0 -162 42 -364 105 -499
51 -110 47 -120 -27 -82 -138 70 -231 272 -246 534 -6 103 -9 120 -24 123 -17
3 -18 -9 -18 -140 1 -281 47 -458 147 -560 l46 -46 -44 5 c-92 12 -131 35
-173 104 -95 155 -154 343 -163 526 -6 107 -7 112 -30 118 -44 11 -46 3 -40
-184 5 -157 16 -237 42 -316 12 -36 -35 37 -61 95 -35 77 -63 188 -76 306
l-12 102 -80 6 c-45 3 -158 9 -251 12 -163 6 -172 6 -214 -15 -75 -39 -185
-61 -298 -61 -130 0 -214 17 -423 85 -120 40 -188 56 -250 61 -80 7 -84 6 -71
-10 25 -31 211 -117 346 -162 288 -94 545 -116 790 -67 29 5 28 4 -15 -29 -61
-48 -153 -93 -231 -114 -78 -21 -266 -24 -354 -5 -233 50 -474 166 -713 343
-91 68 -93 68 -170 74 l-77 6 85 -87 c260 -266 566 -449 880 -526 76 -18 124
-23 240 -23 80 -1 161 2 180 6 l35 7 -28 -15 c-44 -24 -255 -91 -347 -111
-126 -26 -337 -24 -453 5 -178 44 -364 140 -532 275 -107 85 -287 266 -405
405 l-85 100 -85 6 c-47 4 -102 9 -124 12 -27 4 -36 3 -32 -5 9 -14 0 -14 -26
0 -11 6 -183 26 -381 45 -199 19 -447 43 -551 54 -104 11 -191 18 -193 17 -4
-4 362 -177 504 -238 160 -69 384 -143 523 -172 l115 -24 240 -163 c632 -429
755 -548 1170 -1140 87 -124 180 -254 208 -289 l49 -63 -7 -77 c-12 -144 -68
-421 -85 -421 -3 0 -18 53 -33 118 -210 885 -1064 1623 -2367 2047 -393 127
-968 249 -1215 258 -64 2 -70 0 -73 -19 -2 -11 3 -25 10 -31 7 -6 121 -36 253
-67 1079 -257 1661 -496 2180 -895 439 -338 783 -807 1075 -1466 29 -66 63
-131 76 -144 l22 -24 -35 -81 c-32 -75 -128 -265 -368 -729 l-97 -188 -30 45
c-53 81 -152 143 -283 176 -141 36 -291 43 -670 30 -451 -16 -1401 -8 -1715
14 -710 50 -1287 147 -1655 277 -402 141 -764 368 -1055 659 -607 607 -875
1444 -744 2328 8 59 19 111 23 115 5 5 33 -10 62 -32 68 -52 210 -123 312
-155 342 -110 801 -97 1181 34 65 22 145 54 177 71 48 24 59 34 59 54 0 36
-21 40 -86 16 -92 -35 -311 -89 -429 -106 -131 -19 -369 -22 -480 -5 -117 18
-250 63 -430 147 -88 41 -197 91 -242 111 -46 21 -83 43 -83 51 0 14 34 135
51 179 9 23 9 23 68 -23 33 -25 102 -66 153 -90 275 -133 642 -149 1248 -54
423 66 603 90 785 105 105 9 198 19 208 23 9 3 -134 26 -318 51 l-335 46 -223
-38 c-578 -98 -971 -107 -1257 -27 -111 30 -219 75 -278 114 -30 19 -57 35
-61 35 -4 0 -31 -48 -58 -107z m8976 -1346 c73 -77 124 -111 212 -138 74 -23
206 -25 275 -4 27 8 49 15 50 15 2 0 16 -458 18 -550 0 -41 -5 -214 -13 -385
-15 -346 -10 -1381 8 -1700 40 -682 110 -1454 167 -1845 46 -320 116 -550 207
-687 139 -209 344 -306 609 -289 123 8 212 25 422 81 92 25 170 44 172 43 1
-2 -52 -51 -119 -108 -286 -245 -863 -756 -1000 -885 -407 -385 -518 -482
-685 -593 -171 -116 -385 -213 -472 -214 -83 -1 -303 97 -466 208 -160 108
-295 223 -569 484 -82 79 -240 222 -350 319 -110 96 -274 241 -365 321 -91 81
-250 219 -353 308 -103 89 -183 162 -178 162 6 0 74 -18 152 -40 227 -64 345
-84 494 -84 218 0 339 46 470 178 191 193 262 439 340 1176 153 1463 180 2675
85 3875 -10 127 -16 232 -14 234 2 2 25 -5 51 -17 182 -77 378 -46 521 83 57
51 130 155 162 231 l21 49 42 -80 c24 -45 70 -108 106 -148z m1200 200 l40
-23 -31 -18 c-25 -15 -32 -16 -39 -5 -5 8 -9 19 -9 26 0 6 -3 18 -6 27 -8 21
-4 20 45 -7z m-2906 -197 c243 -163 365 -440 342 -780 -18 -285 -81 -522 -290
-1105 -284 -791 -381 -1169 -416 -1620 -22 -292 14 -643 95 -913 90 -297 212
-510 401 -700 62 -62 108 -115 104 -118 -10 -6 -249 216 -426 393 -253 254
-392 558 -481 1053 -15 82 -20 95 -37 95 -19 0 -20 -8 -23 -115 -9 -346 139
-797 380 -1161 46 -68 87 -130 92 -138 13 -20 -160 100 -221 154 -117 103
-259 309 -320 464 -59 151 -76 260 -69 448 4 127 2 164 -8 172 -21 17 -32 -4
-53 -99 -28 -131 -25 -448 6 -590 44 -206 113 -369 224 -532 36 -54 64 -98 61
-98 -2 0 -31 7 -64 17 l-60 16 -79 126 c-101 163 -144 249 -186 374 -53 160
-84 346 -85 510 0 43 -4 59 -16 64 -9 3 -20 0 -25 -8 -6 -8 -9 -112 -7 -246 2
-127 -1 -222 -5 -210 -38 102 -77 409 -77 607 0 268 36 487 125 755 65 199
135 362 309 723 217 451 299 665 364 952 58 253 67 340 67 635 0 274 -6 346
-46 544 -11 52 -17 96 -15 98 8 9 91 -88 128 -148 170 -280 197 -609 81 -992
-24 -80 -25 -123 -3 -87 24 38 74 172 96 257 103 408 1 833 -261 1081 -72 69
-74 72 -49 78 36 9 154 -52 226 -116 65 -58 154 -186 191 -275 49 -116 70
-221 75 -370 6 -196 -17 -339 -107 -668 -43 -156 -48 -181 -30 -175 34 11 158
393 194 597 72 409 -37 799 -281 1008 l-55 47 58 22 c32 12 68 23 80 23 12 1
55 -22 96 -49z m3270 31 l29 -11 -49 -38 c-92 -74 -164 -164 -223 -282 -160
-317 -145 -716 45 -1216 44 -116 59 -144 71 -131 3 3 -17 90 -45 194 -78 287
-92 365 -98 558 -4 145 -2 184 15 266 25 120 76 247 136 337 92 140 246 252
344 252 l44 0 -60 -44 c-96 -71 -196 -206 -250 -338 -123 -303 -119 -660 10
-961 19 -44 38 -77 43 -75 14 4 11 18 -24 131 -103 331 -70 667 93 941 44 73
132 169 186 200 31 18 32 18 26 0 -3 -11 -15 -63 -26 -118 -117 -561 -55
-1141 186 -1730 41 -99 78 -180 291 -626 272 -568 368 -981 333 -1433 -25
-331 -65 -478 -215 -792 -45 -93 -87 -185 -94 -202 -8 -18 -20 -33 -27 -33
-11 0 -8 12 10 49 39 76 104 274 126 380 54 268 49 642 -8 607 -5 -3 -12 -63
-15 -133 -11 -220 -66 -442 -154 -617 -37 -74 -187 -320 -209 -345 -11 -13
-114 -50 -137 -51 -4 0 17 33 48 73 133 177 212 347 261 562 35 157 45 417 20
572 -19 124 -30 156 -54 151 -15 -3 -17 -18 -13 -168 4 -188 -10 -287 -60
-424 -76 -211 -257 -448 -439 -577 -112 -79 -119 -80 -67 -8 188 266 344 629
401 936 21 110 37 328 28 378 -6 30 -12 40 -26 40 -17 0 -22 -17 -43 -130 -29
-160 -56 -273 -95 -390 -66 -200 -195 -425 -317 -555 l-62 -65 50 102 c89 181
160 417 196 653 22 148 30 465 16 630 -38 423 -141 809 -444 1655 -158 442
-215 648 -248 900 -16 126 -7 348 20 450 47 182 164 345 321 448 78 50 89 52
153 28z m-638 -327 c-47 -220 -20 -570 75 -944 43 -169 64 -236 210 -655 201
-582 292 -891 354 -1205 156 -796 33 -1404 -390 -1926 -97 -120 -98 -120 -118
-89 -16 24 -15 28 18 92 180 360 214 980 80 1507 -30 119 -34 128 -53 116 -12
-7 -11 -30 7 -157 60 -407 53 -685 -23 -948 -27 -92 -121 -343 -135 -358 -11
-12 -32 114 -90 518 -122 864 -182 1684 -196 2665 l-5 395 45 -170 c69 -265
179 -601 236 -727 21 -44 46 -45 68 -1 10 17 4 60 -28 220 -44 221 -79 442
-112 703 -30 240 -33 755 -5 865 19 73 64 182 72 173 3 -2 -2 -36 -10 -74z
m-3255 -186 c0 -19 -2 -20 -10 -8 -13 19 -13 30 0 30 6 0 10 -10 10 -22z
m1119 -763 c-14 -208 -41 -359 -140 -777 -27 -113 -30 -142 -21 -163 8 -17 20
-25 36 -25 22 0 29 11 64 103 107 277 205 619 273 947 l38 185 0 -240 c1 -132
-4 -406 -9 -610 -26 -982 -82 -1715 -185 -2435 -18 -129 -41 -296 -50 -370 -8
-74 -21 -160 -28 -190 l-12 -55 -52 116 c-92 207 -155 418 -189 642 -22 138
-25 468 -5 604 13 95 9 133 -14 133 -15 0 -56 -159 -80 -310 -22 -135 -30
-402 -16 -535 29 -267 89 -481 203 -716 l70 -147 -23 -32 -24 -32 -38 44
c-507 574 -636 1225 -426 2153 62 272 138 516 387 1241 130 377 205 675 230
909 12 117 22 -274 11 -440z m-1617 -4134 c54 -6 73 -13 96 -35 16 -15 40 -28
53 -28 27 -2 36 -10 255 -207 87 -80 377 -332 644 -560 323 -277 562 -491 715
-641 127 -124 268 -256 315 -293 337 -271 631 -322 943 -165 168 84 285 179
599 485 138 136 382 355 640 576 455 389 721 622 839 734 53 51 84 73 101 73
14 0 42 14 63 30 41 33 79 37 260 31 170 -6 316 -58 440 -158 64 -52 155 -158
155 -181 0 -7 -37 -59 -82 -115 -487 -603 -1320 -1362 -2134 -1947 -98 -71
-180 -127 -182 -125 -2 2 9 27 24 57 15 29 44 98 63 154 l36 101 90 73 c206
167 436 377 855 779 302 290 342 335 304 348 -20 7 -820 -681 -1130 -971 l-91
-86 8 48 c12 75 10 270 -5 352 -18 99 -35 160 -45 160 -4 0 -5 -52 -3 -115 13
-347 -78 -679 -264 -955 -45 -67 -129 -167 -122 -145 2 6 19 42 39 80 98 188
161 467 185 816 4 67 3 99 -5 103 -6 4 -11 4 -11 -1 0 -4 -11 -78 -25 -164
-64 -412 -168 -665 -350 -850 -32 -33 -60 -58 -61 -56 -2 2 12 47 31 100 64
180 116 406 150 661 12 82 13 122 6 129 -14 14 -14 12 -56 -188 -80 -385 -172
-626 -304 -793 -42 -52 -83 -72 -179 -87 l-42 -7 52 70 c88 117 167 287 213
457 29 107 58 299 50 326 -12 36 -22 18 -35 -58 -18 -111 -55 -235 -101 -333
-82 -174 -305 -470 -354 -470 -17 0 -43 22 -92 79 -200 230 -304 432 -356 684
-38 186 -56 102 -20 -98 34 -196 123 -415 230 -569 63 -89 70 -84 -66 -49 -60
16 -67 21 -108 77 -126 171 -210 395 -291 779 -36 172 -60 226 -54 122 5 -90
53 -357 92 -510 38 -149 48 -181 89 -283 l21 -53 -35 28 c-64 51 -169 191
-223 298 -81 163 -133 363 -188 728 -4 27 -9 36 -16 29 -8 -8 -7 -55 1 -154
24 -288 71 -512 145 -688 20 -46 36 -86 36 -88 0 -16 -68 52 -101 99 -166 245
-255 571 -248 911 2 70 0 130 -3 134 -8 7 -26 -56 -44 -156 -16 -90 -18 -270
-4 -359 6 -35 10 -65 8 -66 -2 -2 -75 65 -163 148 -88 82 -230 212 -315 287
-214 188 -748 640 -764 646 -16 6 -29 -23 -19 -39 8 -11 359 -350 593 -572
233 -221 478 -438 622 -550 61 -47 81 -69 94 -105 10 -25 30 -75 45 -112 16
-38 26 -68 23 -68 -7 0 -330 238 -474 349 -422 327 -994 838 -1322 1182 -253
266 -498 554 -498 587 0 34 58 138 100 179 76 74 230 141 375 162 77 11 201
12 287 2z m6188 -477 c25 -83 25 -140 0 -240 -39 -153 -148 -341 -356 -615
-256 -337 -407 -480 -619 -587 -139 -69 -235 -88 -295 -57 -63 33 -60 37 204
306 410 418 683 743 950 1132 48 70 89 127 91 127 2 0 13 -30 25 -66z m-6898
-76 c229 -341 542 -712 951 -1125 l250 -252 -17 -25 c-63 -97 -204 -66 -451
98 -127 85 -264 220 -416 411 -278 347 -363 515 -389 767 -8 83 -5 218 6 218
2 0 31 -42 66 -92z"/>
<path d="M23158 24323 c7 -3 16 -2 19 1 4 3 -2 6 -13 5 -11 0 -14 -3 -6 -6z"/>
<path d="M5775 24148 c-974 -2322 -1745 -4175 -1741 -4185 7 -17 310 -258 571
-453 1258 -940 2609 -1697 3814 -2136 112 -41 211 -74 220 -73 9 0 41 29 71
65 30 35 119 128 197 206 79 78 142 142 140 143 -1 1 -60 16 -132 34 -469 116
-1027 310 -1431 499 -657 308 -1392 789 -2004 1313 -69 59 -135 118 -147 131
l-23 24 280 809 c154 446 291 840 305 878 13 37 23 67 21 67 -2 0 -249 -273
-547 -607 -299 -335 -559 -624 -577 -643 l-33 -35 14 35 c33 85 1220 2985
1222 2988 3 3 887 -267 893 -273 3 -3 -250 -1409 -265 -1475 -3 -14 191 247
431 580 241 333 442 610 447 615 6 6 5 -3 -1 -20 -783 -2064 -743 -1955 -724
-1976 29 -32 228 -161 377 -244 527 -294 1363 -577 2267 -769 241 -51 260 -52
155 -13 -375 141 -677 322 -1045 625 -143 119 -454 429 -582 582 -105 125
-239 302 -234 307 2 2 68 -35 147 -82 305 -181 779 -402 1209 -563 337 -125
1020 -342 1080 -342 14 0 18 15 24 93 37 509 115 1168 192 1616 19 112 31 207
27 211 -4 4 -105 40 -223 79 -1912 646 -3482 1361 -4258 1937 -61 46 -115 84
-118 84 -3 0 -11 -15 -19 -32z"/>
<path d="M44115 24119 c-108 -82 -360 -248 -525 -346 -722 -430 -1788 -905
-3080 -1373 -230 -83 -939 -330 -948 -330 -2 0 -2 -10 1 -22 10 -38 74 -490
96 -673 30 -250 77 -718 97 -970 10 -121 21 -224 25 -229 17 -19 659 181 1049
326 431 161 905 382 1209 563 79 47 145 84 147 82 5 -5 -132 -184 -235 -307
-130 -157 -439 -464 -592 -591 -350 -288 -682 -486 -1034 -615 -49 -18 -85
-33 -78 -34 7 0 79 14 160 31 949 197 1805 484 2348 789 138 77 298 180 354
227 l34 29 -366 965 c-201 530 -371 978 -377 994 -6 17 -7 26 -1 20 5 -5 206
-282 446 -615 240 -332 434 -593 431 -580 -16 71 -268 1472 -265 1475 7 6 891
277 894 273 2 -2 1130 -2760 1222 -2988 l15 -35 -35 35 c-19 19 -265 294 -547
610 -282 316 -528 591 -547 610 l-34 35 25 -70 c14 -38 152 -434 306 -880
l280 -809 -23 -24 c-70 -76 -399 -344 -657 -537 -615 -457 -1252 -823 -1853
-1061 -217 -87 -687 -244 -879 -295 -71 -19 -128 -37 -128 -40 0 -3 42 -42 93
-86 50 -45 147 -138 215 -207 l123 -127 127 47 c800 295 1676 734 2537 1272
414 259 894 588 1290 886 267 200 536 418 532 430 -3 6 -393 938 -867 2071
-475 1133 -870 2077 -878 2098 -8 20 -18 37 -21 37 -3 0 -42 -28 -86 -61z"/>
<path d="M17985 23970 c-55 -5 -228 -25 -384 -45 -480 -59 -628 -58 -1005 11
-104 19 -190 34 -191 32 -2 -2 47 -76 108 -165 417 -603 1013 -1109 1630
-1382 251 -112 565 -203 977 -285 340 -67 651 -109 1310 -176 613 -62 853 -97
1136 -165 336 -81 579 -177 936 -371 64 -35 119 -64 121 -64 8 0 -62 283 -95
385 -67 210 -250 534 -425 755 -97 122 -360 384 -483 482 -326 259 -702 464
-1130 618 -400 143 -1045 286 -1585 351 -202 24 -738 35 -920 19z"/>
<path d="M31495 23973 c-483 -33 -1218 -175 -1681 -324 -853 -275 -1506 -739
-1917 -1364 -100 -152 -225 -403 -270 -542 -35 -106 -101 -372 -94 -379 1 -2
66 31 142 73 428 233 753 343 1261 427 198 33 406 58 834 101 761 76 1138 134
1600 246 329 80 550 159 791 279 470 236 953 635 1310 1080 83 104 283 390
277 396 -3 2 -90 -12 -195 -31 -400 -72 -497 -72 -1038 -5 -132 16 -294 34
-360 40 -110 9 -541 11 -660 3z"/>
<path d="M17625 22457 c-4 -14 -3 -32 2 -40 14 -26 153 -145 289 -247 518
-392 1116 -614 1709 -637 251 -9 460 14 708 79 106 28 118 33 124 56 13 55 7
56 -253 63 -695 19 -1249 119 -1759 316 -208 81 -505 236 -698 365 -111 74
-115 76 -122 45z"/>
<path d="M32340 22429 c-538 -362 -1150 -575 -1895 -658 -228 -26 -482 -41
-673 -41 -161 0 -177 -5 -170 -52 4 -30 34 -43 171 -78 203 -51 329 -65 582
-64 246 0 352 11 574 60 508 113 1026 384 1439 752 64 57 73 69 70 95 -2 17
-7 32 -13 34 -5 1 -44 -20 -85 -48z"/>
<path d="M22980 15541 c-17 -32 -11 -66 18 -109 108 -161 353 -421 522 -554
298 -236 622 -400 965 -488 856 -220 1703 54 2405 776 172 177 284 317 275
344 -3 11 -10 20 -14 20 -5 0 -29 -27 -56 -61 -81 -103 -264 -287 -395 -397
-233 -195 -534 -372 -794 -467 -266 -97 -510 -139 -811 -139 -279 0 -452 27
-711 112 -434 143 -895 459 -1264 866 -58 64 -110 116 -117 116 -7 0 -17 -9
-23 -19z"/>
</g>
</svg>
